<?xml version="1.0" standalone="no"?>
<!DOCTYPE svg PUBLIC "-//W3C//DTD SVG 20010904//EN"
 "http://www.w3.org/TR/2001/REC-SVG-20010904/DTD/svg10.dtd">
<svg version="1.0" xmlns="http://www.w3.org/2000/svg"
 width="1080.000000pt" height="1080.000000pt" viewBox="0 0 1080.000000 1080.000000"
 preserveAspectRatio="xMidYMid meet">
<metadata>
Created by potrace 1.16, written by Peter Selinger 2001-2019
</metadata>
<g transform="translate(0.000000,1080.000000) scale(0.100000,-0.100000)"
fill="#000000" stroke="none">
<path d="M0 5400 l0 -5400 5400 0 5400 0 0 5400 0 5400 -5400 0 -5400 0 0
-5400z m6716 2381 c275 -57 487 -254 566 -526 l23 -80 0 -1285 c0 -1449 6
-1331 -80 -1506 -91 -185 -262 -324 -470 -380 -67 -18 -125 -19 -1370 -19
l-1300 0 -75 23 c-212 67 -377 207 -466 399 -72 154 -68 64 -72 1413 -2 796 1
1248 7 1312 31 287 224 534 486 623 126 43 134 43 1425 44 1169 1 1240 0 1326
-18z m-2549 -4188 c70 -33 103 -125 103 -288 0 -103 -16 -190 -42 -234 -27
-44 -87 -71 -160 -71 -151 0 -200 74 -200 305 0 182 30 261 112 294 41 16 148
13 187 -6z m489 1 c45 -21 74 -71 81 -139 l6 -55 -62 0 -61 0 0 36 c0 45 -15
73 -46 84 -40 16 -71 -3 -84 -50 -14 -53 -14 -292 0 -336 30 -91 120 -61 135
44 l7 52 59 0 c66 0 65 2 49 -80 -19 -101 -80 -150 -185 -150 -70 0 -115 19
-148 61 -37 50 -47 100 -47 245 0 187 28 260 110 293 40 16 148 13 186 -5z
m522 -41 l-3 -48 -95 -2 c-52 -1 -101 -2 -108 -2 -10 -1 -12 -19 -10 -68 l3
-68 98 -3 97 -3 0 -44 0 -44 -97 -3 -98 -3 0 -80 0 -80 108 -3 107 -3 0 -44 0
-45 -170 0 -170 0 0 295 0 295 171 0 170 0 -3 -47z m392 -75 c64 -238 120
-453 120 -460 0 -5 -27 -8 -60 -8 -57 0 -60 1 -66 28 -22 96 -11 87 -102 90
l-81 3 -12 -61 -12 -60 -63 0 c-46 0 -62 3 -59 13 2 6 36 134 75 282 39 149
73 276 75 283 3 8 28 12 78 12 l74 0 33 -122z m405 -81 l70 -198 3 200 2 201
55 0 55 0 0 -295 0 -295 -69 0 -69 0 -25 73 c-90 260 -110 313 -118 322 -5 5
-9 -70 -9 -193 l0 -202 -50 0 -50 0 0 295 0 296 67 -3 68 -3 70 -198z m425
-92 l0 -295 -60 0 -60 0 0 295 0 295 60 0 60 0 0 -295z m404 198 c52 -192 126
-478 126 -485 0 -5 -27 -8 -60 -8 l-59 0 -13 60 -12 60 -82 0 -82 0 -6 -30
c-3 -16 -9 -43 -12 -60 -5 -29 -7 -30 -65 -30 -38 0 -59 4 -59 12 0 11 108
426 136 526 l15 52 73 0 74 0 26 -97z"/>
<path d="M4070 7614 c-152 -40 -301 -160 -367 -295 -66 -133 -63 -68 -63
-1430 0 -1199 1 -1238 20 -1313 27 -108 63 -169 150 -257 81 -82 158 -128 257
-154 87 -23 528 -27 1658 -17 l980 8 60 24 c134 52 246 149 308 268 71 135 67
52 67 1442 0 1382 3 1308 -63 1435 -44 85 -165 203 -247 243 -135 65 -58 62
-1445 61 -1068 0 -1268 -3 -1315 -15z m1727 -541 c38 -21 301 -306 314 -340 5
-14 9 -374 9 -846 0 -694 -2 -826 -14 -849 -22 -43 -295 -336 -319 -344 -12
-4 -188 -6 -391 -5 -292 1 -374 5 -395 16 -34 18 -292 289 -308 324 -18 39
-17 282 1 326 38 90 177 101 231 18 13 -19 20 -56 25 -129 l6 -101 70 -78 c38
-42 81 -83 95 -90 40 -21 487 -31 531 -11 18 7 67 48 108 90 l75 76 3 236 c3
227 2 236 -19 271 -38 61 -49 63 -434 63 -271 0 -353 3 -378 14 -38 16 -287
267 -310 313 -15 28 -17 75 -17 358 0 224 4 333 11 348 10 19 83 101 239 271
84 91 56 86 470 86 329 0 368 -2 397 -17z"/>
<path d="M5073 6748 c-100 -96 -103 -103 -103 -361 0 -249 1 -252 80 -340 81
-90 67 -87 400 -87 322 0 333 2 370 63 19 30 20 52 20 312 0 317 6 289 -89
388 -86 90 -74 87 -361 87 l-252 0 -65 -62z"/>
<path d="M4034 3520 c-38 -15 -48 -64 -48 -216 0 -89 5 -152 13 -171 24 -60
94 -69 128 -17 12 20 18 55 21 139 5 136 -3 217 -26 244 -20 24 -59 33 -88 21z"/>
<path d="M5456 3473 c-9 -29 -46 -215 -46 -230 0 -9 16 -13 55 -13 30 0 55 2
55 5 0 11 -52 250 -55 253 -2 2 -6 -5 -9 -15z"/>
<path d="M6700 3488 c0 -3 -11 -56 -25 -118 -14 -62 -25 -119 -25 -127 0 -9
16 -13 55 -13 30 0 55 4 55 9 0 16 -51 245 -56 250 -2 2 -4 2 -4 -1z"/>
</g>
</svg>
