<?xml version="1.0" standalone="no"?>
<!DOCTYPE svg PUBLIC "-//W3C//DTD SVG 20010904//EN"
 "http://www.w3.org/TR/2001/REC-SVG-20010904/DTD/svg10.dtd">
<svg version="1.0" xmlns="http://www.w3.org/2000/svg"
 width="1080.000000pt" height="1080.000000pt" viewBox="0 0 1080.000000 1080.000000"
 preserveAspectRatio="xMidYMid meet">
<metadata>
Created by potrace 1.16, written by Peter Selinger 2001-2019
</metadata>
<g transform="translate(0.000000,1080.000000) scale(0.100000,-0.100000)"
fill="#000000" stroke="none">
<path d="M0 5400 l0 -5400 5400 0 5400 0 0 5400 0 5400 -5400 0 -5400 0 0
-5400z m6772 2373 c219 -70 403 -234 483 -431 57 -141 56 -103 53 -1492 l-3
-1275 -27 -80 c-40 -117 -92 -199 -188 -296 -94 -95 -174 -146 -298 -188 l-77
-26 -1325 0 -1325 0 -88 31 c-123 45 -189 87 -288 184 -72 71 -93 101 -132
180 -89 180 -82 58 -82 1510 0 1441 -5 1333 74 1495 105 212 309 366 539 405
26 4 625 7 1332 6 1283 -1 1285 -1 1352 -23z m-2602 -4378 c72 -37 100 -118
100 -286 0 -64 -3 -131 -6 -148 -6 -31 -7 -31 -69 -31 l-62 0 9 63 c12 76 4
254 -13 290 -14 31 -55 48 -87 36 -43 -16 -54 -67 -50 -236 l3 -153 -56 0
c-68 0 -68 -1 -76 130 -10 166 21 286 83 327 54 35 164 39 224 8z m492 -2 c17
-10 39 -29 50 -43 18 -25 41 -127 31 -142 -2 -5 -31 -8 -64 -8 l-59 0 0 30 c0
71 -51 115 -97 85 -33 -22 -38 -52 -38 -228 l0 -157 -57 0 c-31 0 -59 4 -63 9
-11 19 -6 310 7 352 15 53 65 103 115 117 51 15 137 7 175 -15z m516 -40 l-3
-48 -102 -3 -103 -3 0 -64 0 -64 98 -3 97 -3 3 -47 3 -48 -100 0 -101 0 0 -70
0 -70 -65 0 -65 0 0 235 0 235 171 0 170 0 -3 -47z m397 -83 c18 -69 45 -171
60 -228 15 -57 25 -105 23 -108 -3 -2 -93 -3 -200 -2 l-195 3 61 233 61 233
79 -3 79 -3 32 -125z m340 108 c14 -46 118 -334 126 -348 5 -9 9 67 9 178 l0
192 55 0 55 0 0 -235 0 -236 -91 3 -92 3 -39 110 c-21 61 -43 119 -48 130 -6
13 -9 -28 -9 -112 l-1 -133 -60 0 -60 0 0 235 0 235 74 0 c69 0 75 -2 81 -22z
m485 -213 l0 -236 -62 3 -63 3 -3 233 -2 232 65 0 65 0 0 -235z m407 140 c13
-49 40 -152 60 -227 20 -76 34 -140 31 -143 -3 -3 -93 -4 -200 -3 l-195 3 58
220 c32 121 61 225 64 233 3 9 25 12 81 10 l77 -3 24 -90z"/>
<path d="M4083 7615 c-206 -45 -383 -227 -428 -440 -22 -105 -22 -2465 0
-2570 45 -213 210 -387 420 -440 90 -23 2541 -23 2630 0 107 27 184 72 265
154 87 88 122 148 150 257 19 75 20 114 20 1313 0 1070 -2 1245 -15 1300 -49
207 -219 377 -427 426 -90 21 -2518 21 -2615 0z m1711 -536 c25 -12 291 -294
313 -333 9 -16 12 -219 12 -856 0 -636 -3 -840 -12 -857 -27 -48 -292 -326
-323 -339 -48 -20 -720 -20 -767 0 -36 15 -314 298 -328 334 -5 13 -9 87 -9
165 0 123 3 146 20 174 54 90 169 92 227 4 19 -29 23 -47 23 -118 0 -53 5 -94
14 -111 8 -15 49 -61 90 -102 l76 -75 238 -5 c130 -3 252 -2 271 2 37 7 160
120 187 170 11 21 14 75 14 243 0 246 -5 267 -69 303 -38 21 -48 22 -394 22
-232 0 -364 4 -380 11 -25 11 -284 278 -304 313 -15 25 -18 671 -4 708 10 27
272 315 310 340 24 16 61 18 398 18 255 0 380 -4 397 -11z"/>
<path d="M5135 6798 c-30 -16 -73 -58 -116 -111 l-39 -49 0 -245 c0 -165 4
-251 12 -266 19 -37 108 -131 141 -149 28 -16 64 -18 315 -18 416 0 392 -23
392 367 0 149 -4 282 -9 295 -13 33 -144 166 -176 178 -37 14 -494 13 -520 -2z"/>
</g>
</svg>
