<?xml version="1.0" standalone="no"?>
<!DOCTYPE svg PUBLIC "-//W3C//DTD SVG 20010904//EN"
 "http://www.w3.org/TR/2001/REC-SVG-20010904/DTD/svg10.dtd">
<svg version="1.0" xmlns="http://www.w3.org/2000/svg"
 width="1080.000000pt" height="1080.000000pt" viewBox="0 0 1080.000000 1080.000000"
 preserveAspectRatio="xMidYMid meet">
<metadata>
Created by potrace 1.16, written by Peter Selinger 2001-2019
</metadata>
<g transform="translate(0.000000,1080.000000) scale(0.100000,-0.100000)"
fill="#000000" stroke="none">
<path d="M0 5400 l0 -5400 5400 0 5400 0 0 5400 0 5400 -5400 0 -5400 0 0
-5400z m6755 2377 c261 -77 453 -267 527 -522 l23 -80 0 -1285 c0 -1449 6
-1331 -80 -1506 -91 -185 -262 -324 -470 -380 -67 -18 -125 -19 -1370 -19
l-1300 0 -75 23 c-212 67 -377 207 -466 399 -72 154 -68 64 -72 1413 -2 796 1
1248 7 1312 31 287 224 534 486 623 128 44 128 44 1460 42 1182 -2 1274 -4
1330 -20z m-2588 -4184 c70 -33 103 -125 103 -288 0 -103 -16 -190 -42 -234
-27 -44 -87 -71 -160 -71 -151 0 -200 74 -200 305 0 182 30 261 112 294 41 16
148 13 187 -6z m493 -2 c44 -23 80 -90 80 -148 l0 -43 -60 0 -60 0 0 36 c0 45
-15 73 -46 84 -40 16 -71 -3 -84 -50 -14 -53 -14 -292 0 -336 30 -91 120 -61
135 44 l7 52 60 0 60 0 -7 -52 c-13 -94 -41 -138 -102 -164 -42 -18 -134 -18
-177 0 -41 17 -80 67 -95 121 -16 60 -14 291 4 351 15 52 52 96 95 113 44 17
152 13 190 -8z m518 -38 l-3 -48 -108 -3 -108 -3 3 -67 3 -67 98 -3 97 -3 0
-44 0 -44 -97 -3 -98 -3 -3 -74 c-2 -53 1 -77 10 -82 7 -5 57 -9 111 -9 l97 0
0 -45 0 -45 -170 0 -170 0 0 295 0 295 171 0 170 0 -3 -47z m362 42 c0 -3 34
-132 75 -287 41 -156 75 -286 75 -290 0 -5 -27 -8 -59 -8 -65 0 -65 0 -76 74
l-7 46 -84 0 -83 0 -12 -60 -12 -60 -62 0 -62 0 12 48 c58 223 137 519 140
530 3 8 28 12 80 12 41 0 75 -2 75 -5z m435 -198 l70 -198 3 200 2 201 55 0
55 0 0 -295 0 -295 -69 0 -69 0 -25 73 c-90 260 -110 313 -118 322 -5 5 -9
-70 -9 -193 l0 -202 -50 0 -50 0 0 295 0 296 67 -3 68 -3 70 -198z m425 -92
l0 -295 -60 0 -60 0 0 295 0 295 60 0 60 0 0 -295z m404 198 c52 -192 126
-478 126 -485 0 -5 -27 -8 -60 -8 l-59 0 -13 60 -12 60 -82 0 -82 0 -6 -30
c-3 -16 -9 -43 -12 -60 -5 -29 -7 -30 -65 -30 -38 0 -59 4 -59 12 0 11 108
426 136 526 l15 52 73 0 74 0 26 -97z"/>
<path d="M4070 7614 c-152 -40 -301 -160 -367 -295 -66 -133 -63 -68 -63
-1430 0 -1199 1 -1238 20 -1313 11 -43 32 -101 47 -129 40 -75 165 -198 240
-236 136 -68 42 -64 1447 -62 1373 3 1318 1 1430 57 149 75 259 210 300 371
14 54 16 206 16 1313 0 1382 3 1309 -63 1435 -41 76 -139 180 -212 224 -31 19
-93 45 -137 58 l-80 23 -1262 -1 c-1068 0 -1269 -3 -1316 -15z m1722 -538 c16
-8 54 -43 85 -78 32 -34 92 -98 133 -141 122 -128 110 -20 110 -967 0 -696 -2
-829 -14 -852 -25 -47 -287 -326 -319 -339 -47 -20 -745 -16 -784 5 -35 18
-294 289 -310 325 -18 39 -17 282 1 326 38 90 177 101 231 18 13 -19 20 -56
25 -129 l6 -101 70 -78 c38 -42 80 -83 94 -90 35 -18 476 -31 523 -16 21 7 67
45 115 95 l82 84 0 232 c0 219 -1 235 -21 267 -39 63 -41 63 -429 63 -275 0
-358 3 -383 14 -38 16 -287 267 -310 313 -15 28 -17 75 -17 358 0 224 4 333
11 348 10 19 83 101 239 271 84 91 56 86 470 86 297 0 370 -3 392 -14z"/>
<path d="M5073 6748 c-100 -96 -103 -103 -103 -361 0 -249 1 -252 80 -340 81
-90 68 -87 397 -87 418 0 392 -24 393 372 1 196 -2 283 -10 300 -17 32 -130
147 -162 164 -21 11 -80 14 -278 14 l-252 0 -65 -62z"/>
<path d="M4034 3520 c-38 -15 -48 -64 -48 -216 0 -89 5 -152 13 -171 24 -60
94 -69 128 -17 12 20 18 55 21 139 5 136 -3 217 -26 244 -20 24 -59 33 -88 21z"/>
<path d="M5456 3473 c-9 -28 -46 -213 -46 -229 0 -10 15 -14 55 -14 30 0 55 2
55 5 0 11 -52 250 -55 253 -2 2 -6 -5 -9 -15z"/>
<path d="M6700 3488 c0 -3 -11 -56 -25 -118 -14 -62 -25 -119 -25 -127 0 -9
16 -13 55 -13 30 0 55 4 55 9 0 16 -51 245 -56 250 -2 2 -4 2 -4 -1z"/>
</g>
</svg>
