<?xml version="1.0" standalone="no"?>
<!DOCTYPE svg PUBLIC "-//W3C//DTD SVG 20010904//EN"
 "http://www.w3.org/TR/2001/REC-SVG-20010904/DTD/svg10.dtd">
<svg version="1.0" xmlns="http://www.w3.org/2000/svg"
 width="1080.000000pt" height="1080.000000pt" viewBox="0 0 1080.000000 1080.000000"
 preserveAspectRatio="xMidYMid meet">
<metadata>
Created by potrace 1.16, written by Peter Selinger 2001-2019
</metadata>
<g transform="translate(0.000000,1080.000000) scale(0.100000,-0.100000)"
fill="#000000" stroke="none">
<path d="M0 5400 l0 -5400 5400 0 5400 0 0 5400 0 5400 -5400 0 -5400 0 0
-5400z m6750 2377 c259 -70 457 -265 532 -522 l23 -80 0 -1285 c0 -1449 6
-1331 -80 -1506 -89 -183 -239 -305 -465 -380 -52 -18 -123 -19 -1335 -22
-1431 -3 -1368 -6 -1520 67 -162 77 -281 193 -355 346 -79 162 -74 65 -78
1425 -2 796 1 1248 7 1312 31 287 224 534 486 623 128 44 128 44 1455 41 1171
-2 1270 -3 1330 -19z m-2560 -4197 c17 -12 37 -34 44 -48 51 -98 46 -385 -8
-467 -25 -38 -90 -65 -159 -65 -98 0 -152 36 -182 120 -18 51 -22 302 -6 358
13 45 45 94 72 111 56 34 186 29 239 -9z m470 11 c46 -24 70 -67 77 -136 l6
-55 -62 0 -61 0 0 40 c0 30 -7 47 -25 65 -27 28 -33 29 -69 15 -17 -6 -28 -21
-35 -47 -14 -49 -14 -287 -1 -335 27 -95 120 -67 135 40 l7 52 60 0 60 0 -7
-52 c-13 -94 -41 -138 -102 -164 -42 -18 -134 -18 -177 0 -41 17 -80 67 -95
121 -16 60 -14 291 4 351 15 52 52 96 95 113 44 17 152 13 190 -8z m520 -35
c0 -54 -4 -56 -126 -56 l-95 0 3 -67 3 -68 98 -3 97 -3 0 -44 0 -44 -97 -3
-98 -3 0 -80 0 -80 108 -3 107 -3 0 -44 0 -45 -170 0 -170 0 0 295 0 295 170
0 170 0 0 -44z m360 38 c0 -3 12 -49 26 -102 79 -295 124 -468 124 -474 0 -5
-27 -8 -59 -8 -65 0 -65 0 -76 74 l-7 46 -84 0 -83 0 -12 -60 -12 -60 -62 0
-63 0 9 33 c5 17 29 109 54 202 75 286 87 330 91 343 2 8 27 12 79 12 41 0 75
-3 75 -6z m391 -74 c15 -41 48 -131 73 -200 l45 -125 1 203 0 202 55 0 55 0 0
-295 0 -295 -69 0 -68 0 -68 193 c-37 105 -71 196 -76 202 -5 5 -9 -75 -9
-193 l0 -202 -50 0 -50 0 0 295 0 296 67 -3 67 -3 27 -75z m469 -215 l0 -295
-60 0 -60 0 0 295 0 295 60 0 60 0 0 -295z m404 198 c52 -192 126 -478 126
-485 0 -5 -27 -8 -60 -8 l-59 0 -13 60 -12 60 -82 0 -82 0 -6 -30 c-3 -16 -9
-43 -12 -60 -5 -30 -7 -30 -68 -30 l-63 0 67 253 c37 138 73 271 79 295 l12
42 73 0 74 0 26 -97z"/>
<path d="M4070 7614 c-150 -39 -302 -162 -367 -295 -66 -133 -63 -68 -63
-1430 0 -1204 1 -1238 20 -1314 31 -122 95 -220 195 -302 63 -52 161 -99 234
-113 35 -6 497 -10 1310 -10 1395 0 1308 -4 1444 67 90 48 182 140 229 229 72
137 68 52 68 1444 0 1382 3 1308 -63 1435 -48 91 -165 204 -257 248 -41 19
-99 40 -128 46 -37 8 -434 11 -1310 10 -1063 0 -1265 -3 -1312 -15z m1726
-541 c38 -22 302 -307 315 -340 5 -14 9 -368 9 -846 0 -694 -2 -826 -14 -849
-23 -44 -286 -326 -315 -337 -16 -7 -165 -11 -391 -13 -318 -2 -369 0 -395 14
-40 21 -302 298 -315 332 -16 43 -13 280 4 321 38 90 177 101 231 18 13 -19
20 -56 25 -130 l6 -104 50 -50 c27 -29 59 -62 72 -75 50 -52 54 -52 304 -59
232 -7 239 -6 280 15 24 12 73 55 111 95 l67 74 0 232 c0 218 -1 234 -21 266
-39 63 -40 63 -434 63 -286 0 -361 3 -383 14 -37 19 -285 273 -305 313 -15 28
-17 74 -17 352 0 200 4 330 11 347 9 25 55 79 239 278 84 91 56 86 470 86 330
0 368 -2 396 -17z"/>
<path d="M5073 6748 c-100 -96 -103 -103 -103 -361 0 -249 1 -252 80 -340 82
-90 67 -87 403 -87 290 0 295 0 328 23 19 12 40 34 46 48 17 35 19 568 2 601
-16 33 -129 147 -161 164 -21 11 -80 14 -278 14 l-252 0 -65 -62z"/>
<path d="M4034 3520 c-37 -15 -48 -64 -48 -215 0 -158 9 -197 54 -215 36 -15
66 -6 87 27 36 54 28 360 -10 391 -19 16 -60 22 -83 12z"/>
<path d="M5453 3455 c-18 -69 -33 -138 -39 -182 l-7 -43 57 0 56 0 -6 40 c-4
22 -16 81 -29 132 l-22 93 -10 -40z"/>
<path d="M6681 3400 c-12 -50 -24 -109 -27 -131 l-7 -39 57 0 c31 0 56 4 56 9
0 14 -51 245 -54 249 -2 2 -13 -38 -25 -88z"/>
</g>
</svg>
