<?xml version="1.0" standalone="no"?>
<!DOCTYPE svg PUBLIC "-//W3C//DTD SVG 20010904//EN"
 "http://www.w3.org/TR/2001/REC-SVG-20010904/DTD/svg10.dtd">
<svg version="1.0" xmlns="http://www.w3.org/2000/svg"
 width="1080.000000pt" height="1080.000000pt" viewBox="0 0 1080.000000 1080.000000"
 preserveAspectRatio="xMidYMid meet">
<metadata>
Created by potrace 1.16, written by Peter Selinger 2001-2019
</metadata>
<g transform="translate(0.000000,1080.000000) scale(0.100000,-0.100000)"
fill="#000000" stroke="none">
<path d="M0 5400 l0 -5400 5400 0 5400 0 0 5400 0 5400 -5400 0 -5400 0 0
-5400z m6772 2373 c219 -70 403 -234 483 -431 57 -141 56 -103 53 -1492 l-3
-1275 -27 -80 c-40 -117 -92 -199 -188 -296 -94 -95 -174 -146 -298 -188 l-77
-26 -1325 0 -1325 0 -88 31 c-123 45 -189 87 -288 184 -72 71 -93 101 -132
180 -89 180 -82 58 -82 1510 0 1441 -5 1333 74 1495 105 212 309 366 539 405
26 4 625 7 1332 6 1283 -1 1285 -1 1352 -23z m-2585 -4269 c15 -11 39 -42 53
-70 22 -43 25 -64 28 -180 5 -173 -8 -236 -58 -286 l-38 -38 -107 0 -107 0
-33 33 c-48 48 -59 99 -60 267 0 139 1 147 28 203 40 80 75 98 184 95 64 -2
88 -8 110 -24z m489 -1 c37 -27 59 -71 68 -135 l6 -48 -65 0 -65 0 0 31 c0 32
-15 69 -34 81 -25 17 -66 8 -83 -19 -15 -23 -18 -51 -18 -196 l0 -169 28 -24
c20 -17 36 -23 50 -18 38 11 52 33 57 92 l5 57 60 0 c56 0 60 -2 64 -25 6 -49
-19 -129 -53 -165 l-33 -35 -108 0 -108 0 -31 34 c-46 48 -56 95 -57 258 0
188 18 244 90 287 51 30 181 27 227 -6z m504 -33 l0 -50 -105 0 -105 0 0 -70
0 -70 101 0 100 0 -3 -47 -3 -48 -97 -3 -98 -3 0 -74 0 -74 108 -3 107 -3 3
-47 3 -48 -175 0 -176 0 0 295 0 295 170 0 170 0 0 -50z m364 33 c5 -17 33
-123 115 -435 17 -64 31 -121 31 -128 0 -7 -21 -10 -62 -8 -68 3 -60 -5 -82
91 -7 28 -7 28 -83 25 l-77 -3 -14 -57 -14 -58 -65 0 c-57 0 -64 2 -59 18 13
45 58 214 102 384 l49 188 77 0 c64 0 78 -3 82 -17z m419 -145 c91 -255 85
-253 86 -30 l1 192 55 0 55 0 0 -295 0 -296 -71 3 -72 3 -66 188 -66 189 -3
-191 -2 -191 -60 0 -60 0 0 295 0 295 73 0 72 0 58 -162z m437 -133 l0 -296
-62 3 -63 3 -3 293 -2 292 65 0 65 0 0 -295z m384 283 c5 -18 38 -143 96 -363
27 -104 50 -196 50 -203 0 -10 -16 -12 -62 -10 l-63 3 -11 55 -10 55 -79 0
-79 0 -7 -30 c-4 -16 -10 -42 -13 -57 -6 -27 -9 -28 -70 -28 l-64 0 28 108
c15 59 45 170 65 247 21 77 42 158 47 179 5 22 11 43 14 48 9 14 154 10 158
-4z"/>
<path d="M4083 7615 c-206 -45 -383 -227 -428 -440 -22 -105 -22 -2465 0
-2570 45 -213 210 -387 420 -440 90 -23 2541 -23 2630 0 107 27 184 72 265
154 87 88 122 148 150 257 19 75 20 114 20 1313 0 1070 -2 1245 -15 1300 -49
207 -219 377 -427 426 -90 21 -2518 21 -2615 0z m1715 -539 c28 -14 287 -291
309 -330 9 -16 12 -219 12 -856 0 -636 -3 -840 -12 -857 -27 -48 -292 -326
-323 -339 -48 -20 -720 -20 -767 0 -49 20 -325 312 -333 351 -3 17 -4 96 -2
174 l3 143 36 32 c68 62 156 52 206 -23 19 -28 23 -48 23 -113 0 -45 6 -92 14
-111 8 -18 48 -66 90 -107 l76 -75 238 -5 c130 -3 252 -2 271 2 37 7 160 120
187 170 11 21 14 75 14 243 0 246 -5 267 -69 303 -38 21 -48 22 -394 22 -232
0 -364 4 -380 11 -25 11 -284 278 -304 313 -15 25 -18 671 -4 708 10 27 272
315 310 340 24 16 61 18 399 18 301 0 378 -3 400 -14z"/>
<path d="M5135 6798 c-30 -16 -73 -58 -116 -111 l-39 -49 0 -245 c0 -165 4
-251 12 -266 19 -37 108 -131 141 -149 28 -16 64 -18 315 -18 416 0 392 -23
392 367 0 149 -4 282 -9 295 -13 33 -146 166 -176 178 -37 14 -494 12 -520 -2z"/>
<path d="M4013 3414 c-15 -23 -19 -54 -21 -179 -2 -86 1 -162 7 -177 24 -64
97 -72 129 -14 13 25 16 60 17 183 0 139 -2 154 -21 180 -31 41 -86 44 -111 7z"/>
</g>
</svg>
