<?xml version="1.0" standalone="no"?>
<!DOCTYPE svg PUBLIC "-//W3C//DTD SVG 20010904//EN"
 "http://www.w3.org/TR/2001/REC-SVG-20010904/DTD/svg10.dtd">
<svg version="1.0" xmlns="http://www.w3.org/2000/svg"
 width="1080.000000pt" height="1080.000000pt" viewBox="0 0 1080.000000 1080.000000"
 preserveAspectRatio="xMidYMid meet">
<metadata>
Created by potrace 1.16, written by Peter Selinger 2001-2019
</metadata>
<g transform="translate(0.000000,1080.000000) scale(0.100000,-0.100000)"
fill="#000000" stroke="none">
<path d="M0 5400 l0 -5400 5400 0 5400 0 0 5400 0 5400 -5400 0 -5400 0 0
-5400z m6772 2373 c219 -70 403 -234 483 -431 57 -141 56 -103 53 -1492 l-3
-1275 -27 -80 c-40 -117 -92 -199 -188 -296 -94 -95 -174 -146 -298 -188 l-77
-26 -1325 0 -1325 0 -88 31 c-123 45 -189 87 -288 184 -72 71 -93 101 -132
180 -89 180 -82 58 -82 1510 0 1441 -5 1333 74 1495 105 212 309 366 539 405
26 4 625 7 1332 6 1283 -1 1285 -1 1352 -23z"/>
<path d="M4083 7615 c-206 -45 -383 -227 -428 -440 -22 -105 -22 -2465 0
-2570 45 -213 210 -387 420 -440 90 -23 2541 -23 2630 0 107 27 184 72 265
154 87 88 122 148 150 257 19 75 20 114 20 1313 0 1070 -2 1245 -15 1300 -49
207 -219 377 -427 426 -90 21 -2518 21 -2615 0z"/>
</g>
</svg>
