<?xml version="1.0" standalone="no"?>
<!DOCTYPE svg PUBLIC "-//W3C//DTD SVG 20010904//EN"
 "http://www.w3.org/TR/2001/REC-SVG-20010904/DTD/svg10.dtd">
<svg version="1.0" xmlns="http://www.w3.org/2000/svg"
 width="1080.000000pt" height="1080.000000pt" viewBox="0 0 1080.000000 1080.000000"
 preserveAspectRatio="xMidYMid meet">
<metadata>
Created by potrace 1.16, written by Peter Selinger 2001-2019
</metadata>
<g transform="translate(0.000000,1080.000000) scale(0.100000,-0.100000)"
fill="#000000" stroke="none">
<path d="M0 5400 l0 -5400 5400 0 5400 0 0 5400 0 5400 -5400 0 -5400 0 0
-5400z m6772 2373 c219 -70 403 -234 483 -431 57 -141 56 -103 53 -1492 l-3
-1275 -27 -80 c-40 -117 -92 -199 -188 -296 -94 -95 -174 -146 -298 -188 l-77
-26 -1325 0 -1325 0 -88 31 c-123 45 -189 87 -288 184 -72 71 -93 101 -132
180 -89 180 -82 58 -82 1510 0 1441 -5 1333 74 1495 105 212 309 366 539 405
26 4 625 7 1332 6 1283 -1 1285 -1 1352 -23z"/>
<path d="M4083 7615 c-206 -45 -383 -227 -428 -440 -22 -105 -22 -2465 0
-2570 45 -213 210 -387 420 -440 90 -23 2541 -23 2630 0 107 27 184 72 265
154 87 88 122 148 150 257 19 75 20 114 20 1313 0 1070 -2 1245 -15 1300 -49
207 -219 377 -427 426 -90 21 -2518 21 -2615 0z m1711 -536 c26 -12 295 -299
314 -336 17 -32 16 -1679 -1 -1710 -27 -48 -292 -326 -323 -339 -41 -17 -696
-20 -756 -4 -29 8 -70 45 -185 165 -81 85 -151 162 -155 172 -3 10 -7 83 -7
163 -1 127 2 149 19 177 27 45 64 66 116 66 89 0 134 -62 134 -186 0 -48 5
-88 14 -105 8 -15 49 -61 90 -102 l76 -75 238 -5 c130 -3 252 -2 271 2 37 7
160 120 187 170 11 21 14 75 14 243 0 237 -5 261 -58 300 -26 19 -47 20 -402
25 -206 3 -382 8 -390 13 -22 11 -283 286 -298 313 -10 19 -12 102 -10 367 l3
343 29 35 c15 19 54 61 85 94 31 33 83 90 116 125 100 109 57 100 482 100 254
0 380 -4 397 -11z"/>
<path d="M5135 6798 c-30 -16 -94 -78 -126 -122 l-29 -39 0 -246 c1 -174 4
-252 13 -267 25 -44 112 -134 143 -149 26 -12 82 -15 314 -15 415 0 390 -24
390 377 l0 282 -46 53 c-64 73 -115 119 -142 129 -35 13 -493 11 -517 -3z"/>
</g>
</svg>
