<?xml version="1.0" standalone="no"?>
<!DOCTYPE svg PUBLIC "-//W3C//DTD SVG 20010904//EN"
 "http://www.w3.org/TR/2001/REC-SVG-20010904/DTD/svg10.dtd">
<svg version="1.0" xmlns="http://www.w3.org/2000/svg"
 width="1080.000000pt" height="1080.000000pt" viewBox="0 0 1080.000000 1080.000000"
 preserveAspectRatio="xMidYMid meet">
<metadata>
Created by potrace 1.16, written by Peter Selinger 2001-2019
</metadata>
<g transform="translate(0.000000,1080.000000) scale(0.100000,-0.100000)"
fill="#000000" stroke="none">
<path d="M0 5400 l0 -5400 5400 0 5400 0 0 5400 0 5400 -5400 0 -5400 0 0
-5400z m6750 2377 c257 -70 451 -258 532 -517 l23 -75 0 -1290 c0 -1454 6
-1336 -80 -1511 -91 -185 -262 -324 -470 -380 -67 -18 -125 -19 -1370 -19
l-1300 0 -75 23 c-212 67 -377 207 -466 399 -72 154 -68 64 -72 1413 -2 796 1
1248 7 1312 31 287 224 534 486 623 128 44 128 44 1455 41 1171 -2 1270 -3
1330 -19z m-2093 -4184 c44 -20 73 -71 80 -138 l6 -55 -62 0 -61 0 0 39 c0 74
-65 110 -113 62 -20 -20 -22 -34 -26 -157 -1 -75 0 -156 4 -181 17 -117 123
-106 140 15 l7 52 59 0 c66 0 65 2 49 -80 -19 -101 -80 -150 -185 -150 -31 0
-71 6 -89 14 -41 17 -80 67 -95 121 -17 61 -14 291 4 352 16 54 66 108 108
118 70 15 123 11 174 -12z m-487 -1 c19 -9 44 -32 56 -49 58 -87 58 -389 0
-477 -26 -41 -86 -66 -156 -66 -74 0 -117 17 -153 59 -38 46 -49 100 -49 242
0 185 30 265 112 298 42 17 151 13 190 -7z m1008 -39 l-3 -48 -95 -2 c-52 -1
-101 -2 -108 -2 -10 -1 -12 -19 -10 -68 l3 -68 98 -3 97 -3 0 -44 0 -44 -97
-3 -98 -3 0 -80 0 -80 108 -3 107 -3 0 -44 0 -45 -170 0 -170 0 0 295 0 295
171 0 170 0 -3 -47z m362 42 c0 -3 34 -132 75 -287 41 -156 75 -286 75 -290 0
-5 -27 -8 -59 -8 -65 0 -65 0 -76 74 l-7 46 -84 0 -83 0 -12 -60 -12 -60 -62
0 -62 0 12 48 c58 223 137 519 140 530 3 8 28 12 80 12 41 0 75 -2 75 -5z
m435 -198 l70 -198 3 200 2 201 55 0 55 0 0 -295 0 -295 -69 0 -69 0 -25 73
c-90 260 -110 313 -118 322 -5 5 -9 -70 -9 -193 l0 -202 -50 0 -50 0 0 295 0
296 67 -3 68 -3 70 -198z m425 -92 l0 -295 -60 0 -60 0 0 295 0 295 60 0 60 0
0 -295z m404 198 c52 -192 126 -478 126 -485 0 -5 -27 -8 -60 -8 l-59 0 -13
60 -12 60 -82 0 -82 0 -6 -30 c-3 -16 -9 -43 -12 -60 -5 -29 -7 -30 -65 -30
-38 0 -59 4 -59 12 0 11 108 426 136 526 l15 52 73 0 74 0 26 -97z"/>
<path d="M4070 7614 c-152 -40 -301 -160 -367 -295 -66 -133 -63 -68 -63
-1430 0 -1199 1 -1238 20 -1313 27 -108 63 -169 150 -257 81 -82 157 -128 257
-154 86 -23 2561 -22 2649 1 199 51 356 210 408 411 14 54 16 206 16 1306 0
865 -3 1262 -11 1299 -42 201 -216 380 -424 433 -87 22 -2550 22 -2635 -1z
m1726 -541 c39 -23 302 -305 314 -339 6 -15 10 -343 10 -847 0 -694 -2 -826
-14 -849 -24 -45 -286 -326 -315 -337 -26 -10 -362 -17 -641 -13 l-145 2 -148
153 c-82 83 -155 166 -163 184 -20 45 -20 280 0 328 38 90 177 101 231 18 13
-19 20 -56 25 -129 l6 -101 70 -78 c38 -42 80 -83 95 -90 17 -10 96 -15 263
-20 282 -7 280 -8 389 110 l67 74 0 233 c0 216 -2 235 -20 266 -37 60 -52 62
-435 62 -271 0 -353 3 -378 14 -38 16 -287 267 -310 313 -15 28 -17 75 -17
358 0 224 4 333 11 348 10 19 83 101 239 271 84 91 56 86 470 86 330 0 368 -2
396 -17z"/>
<path d="M5073 6748 c-100 -96 -103 -103 -103 -361 0 -249 1 -252 80 -340 81
-90 67 -87 400 -87 321 0 328 1 372 62 23 33 23 36 23 298 -1 146 -4 278 -9
294 -8 33 -126 160 -168 182 -21 11 -82 14 -278 14 l-252 0 -65 -62z"/>
<path d="M4034 3520 c-35 -14 -46 -69 -46 -221 0 -155 9 -191 52 -209 43 -18
81 4 96 55 27 87 13 337 -20 364 -18 15 -59 21 -82 11z"/>
<path d="M5456 3473 c-9 -28 -46 -213 -46 -229 0 -10 15 -14 55 -14 30 0 55 2
55 5 0 11 -52 250 -55 253 -2 2 -6 -5 -9 -15z"/>
<path d="M6700 3488 c0 -3 -11 -56 -25 -118 -14 -62 -25 -119 -25 -127 0 -9
16 -13 55 -13 30 0 55 4 55 9 0 16 -51 245 -56 250 -2 2 -4 2 -4 -1z"/>
</g>
</svg>
