<?xml version="1.0" standalone="no"?>
<!DOCTYPE svg PUBLIC "-//W3C//DTD SVG 20010904//EN"
 "http://www.w3.org/TR/2001/REC-SVG-20010904/DTD/svg10.dtd">
<svg version="1.0" xmlns="http://www.w3.org/2000/svg"
 width="1080.000000pt" height="1080.000000pt" viewBox="0 0 1080.000000 1080.000000"
 preserveAspectRatio="xMidYMid meet">
<metadata>
Created by potrace 1.16, written by Peter Selinger 2001-2019
</metadata>
<g transform="translate(0.000000,1080.000000) scale(0.100000,-0.100000)"
fill="#000000" stroke="none">
<path d="M0 5400 l0 -5400 5400 0 5400 0 0 5400 0 5400 -5400 0 -5400 0 0
-5400z m6570 2315 l0 -85 -1207 0 c-1010 0 -1219 -3 -1276 -15 -155 -33 -311
-153 -381 -296 -54 -110 -66 -182 -66 -411 l0 -198 -86 0 -86 0 5 238 c5 265
11 303 76 437 101 209 310 366 539 405 26 4 595 8 1265 9 l1217 1 0 -85z"/>
</g>
</svg>
