<?xml version="1.0" standalone="no"?>
<!DOCTYPE svg PUBLIC "-//W3C//DTD SVG 20010904//EN"
 "http://www.w3.org/TR/2001/REC-SVG-20010904/DTD/svg10.dtd">
<svg version="1.0" xmlns="http://www.w3.org/2000/svg"
 width="1080.000000pt" height="1080.000000pt" viewBox="0 0 1080.000000 1080.000000"
 preserveAspectRatio="xMidYMid meet">
<metadata>
Created by potrace 1.16, written by Peter Selinger 2001-2019
</metadata>
<g transform="translate(0.000000,1080.000000) scale(0.100000,-0.100000)"
fill="#000000" stroke="none">
<path d="M0 5400 l0 -5400 5400 0 5400 0 0 5400 0 5400 -5400 0 -5400 0 0
-5400z m6775 2372 c224 -76 400 -233 480 -430 57 -141 56 -103 53 -1492 l-3
-1275 -27 -80 c-40 -117 -92 -199 -188 -296 -94 -95 -174 -146 -298 -188 l-77
-26 -1325 0 -1325 0 -88 31 c-123 45 -189 87 -288 184 -72 71 -93 101 -132
180 -89 180 -82 58 -82 1510 0 1441 -5 1333 74 1495 105 212 309 366 539 405
26 4 625 7 1332 6 l1285 -1 70 -23z m-2604 -4235 c33 -17 50 -35 69 -72 24
-47 25 -59 25 -215 0 -147 -2 -170 -21 -211 -27 -59 -76 -89 -152 -96 -112
-10 -186 34 -214 129 -16 56 -16 300 0 356 16 53 64 109 106 121 60 18 140 13
187 -12z m485 2 c48 -23 78 -74 87 -146 l5 -43 -63 0 -62 0 -6 41 c-6 48 -31
79 -64 79 -60 0 -78 -69 -71 -268 5 -126 15 -158 53 -168 55 -14 85 22 85 101
l0 45 65 0 65 0 0 -33 c0 -55 -28 -131 -58 -160 -51 -49 -154 -62 -227 -28
-86 39 -105 91 -106 288 -1 170 14 228 67 271 41 33 63 40 133 41 36 1 69 -6
97 -20z m524 -39 l0 -50 -105 0 -105 0 0 -70 0 -70 100 0 100 0 0 -50 0 -50
-100 0 -100 0 0 -80 0 -79 108 -3 107 -3 0 -45 0 -45 -172 -3 -173 -2 0 300 0
300 170 0 170 0 0 -50z m369 13 c5 -21 39 -149 75 -285 36 -136 66 -254 66
-262 0 -13 -12 -16 -60 -16 l-59 0 -10 38 c-6 20 -11 44 -11 53 0 28 -22 36
-95 35 l-70 -1 -14 -62 -14 -63 -64 0 c-35 0 -63 2 -63 4 0 5 149 568 155 584
3 8 28 12 79 12 l75 0 10 -37z m418 -138 c34 -93 65 -179 69 -190 5 -11 10 63
11 173 l3 192 55 0 55 0 0 -300 0 -300 -69 0 -69 0 -30 83 c-16 45 -46 132
-68 192 l-39 110 -3 -192 -2 -193 -60 0 -60 0 0 293 c0 162 3 297 7 301 4 4
37 6 73 4 l65 -3 62 -170z m433 -125 l0 -301 -62 3 -63 3 -3 285 c-1 157 0
290 3 297 3 9 25 13 65 13 l60 0 0 -300z m393 248 c23 -85 55 -202 101 -378
l44 -165 -61 -3 c-68 -3 -73 1 -83 66 -3 23 -11 45 -16 48 -5 3 -42 6 -81 6
l-72 0 -13 -61 -14 -61 -65 0 c-56 0 -64 2 -59 18 2 9 16 60 30 112 14 52 34
129 45 170 11 41 31 120 46 175 14 55 28 106 30 113 3 8 28 12 79 12 l75 0 14
-52z"/>
<path d="M4083 7615 c-152 -33 -308 -155 -377 -296 -69 -141 -67 -81 -64
-1467 l3 -1247 26 -67 c76 -195 218 -325 404 -373 90 -23 2541 -23 2630 0 107
27 184 72 265 154 87 88 122 148 150 257 19 75 20 114 20 1313 0 1070 -2 1245
-15 1300 -49 207 -219 377 -427 426 -90 21 -2518 21 -2615 0z m1715 -539 c28
-14 287 -291 309 -330 9 -16 12 -219 12 -856 0 -636 -3 -840 -12 -857 -27 -48
-292 -326 -323 -339 -48 -20 -720 -20 -767 0 -49 20 -325 312 -333 351 -3 17
-4 96 -2 174 l3 143 36 32 c68 62 156 52 206 -23 19 -28 23 -48 23 -113 0 -45
6 -92 14 -111 8 -18 48 -66 90 -107 l76 -75 238 -5 c130 -3 252 -2 271 2 37 7
160 120 187 170 11 21 14 75 14 243 0 246 -5 267 -69 303 -38 21 -48 22 -394
22 -232 0 -364 4 -380 11 -25 11 -284 278 -304 313 -15 25 -18 671 -4 708 10
27 272 315 310 340 24 16 61 18 399 18 301 0 378 -3 400 -14z"/>
<path d="M5135 6798 c-30 -16 -73 -58 -116 -111 l-39 -49 0 -245 c0 -165 4
-251 12 -266 19 -37 108 -131 141 -149 28 -16 64 -18 315 -18 416 0 392 -23
392 367 0 149 -4 282 -9 295 -13 33 -146 166 -176 178 -37 14 -494 12 -520 -2z"/>
<path d="M4027 3458 c-29 -23 -37 -67 -37 -209 0 -159 12 -204 55 -215 35 -9
73 10 85 40 15 41 23 169 15 261 -6 73 -11 92 -31 111 -25 26 -61 31 -87 12z"/>
</g>
</svg>
