<?xml version="1.0" standalone="no"?>
<!DOCTYPE svg PUBLIC "-//W3C//DTD SVG 20010904//EN"
 "http://www.w3.org/TR/2001/REC-SVG-20010904/DTD/svg10.dtd">
<svg version="1.0" xmlns="http://www.w3.org/2000/svg"
 width="1080.000000pt" height="1080.000000pt" viewBox="0 0 1080.000000 1080.000000"
 preserveAspectRatio="xMidYMid meet">
<metadata>
Created by potrace 1.16, written by Peter Selinger 2001-2019
</metadata>
<g transform="translate(0.000000,1080.000000) scale(0.100000,-0.100000)"
fill="#000000" stroke="none">
<path d="M0 5400 l0 -5400 5400 0 5400 0 0 5400 0 5400 -5400 0 -5400 0 0
-5400z m6570 2315 l0 -85 -1207 0 c-1341 0 -1283 2 -1416 -67 -146 -77 -258
-224 -292 -388 -22 -105 -22 -2466 0 -2570 46 -215 209 -386 420 -440 90 -23
2541 -23 2630 0 107 27 184 72 265 154 87 88 122 148 150 257 19 75 20 114 20
1313 0 1362 3 1298 -63 1430 -31 63 -130 177 -187 215 l-25 16 28 53 c49 89
53 93 83 77 47 -26 155 -133 205 -203 58 -83 103 -195 119 -297 8 -55 10 -417
8 -1340 l-3 -1265 -27 -80 c-40 -117 -92 -199 -188 -296 -94 -94 -167 -141
-295 -186 l-80 -28 -1290 -3 c-1401 -3 -1356 -4 -1495 52 -157 64 -301 198
-375 350 -86 175 -80 57 -80 1506 0 1441 -5 1330 74 1495 101 209 310 366 539
405 26 4 595 8 1265 9 l1217 1 0 -85z"/>
</g>
</svg>
