<?xml version="1.0" standalone="no"?>
<!DOCTYPE svg PUBLIC "-//W3C//DTD SVG 20010904//EN"
 "http://www.w3.org/TR/2001/REC-SVG-20010904/DTD/svg10.dtd">
<svg version="1.0" xmlns="http://www.w3.org/2000/svg"
 width="1080.000000pt" height="1080.000000pt" viewBox="0 0 1080.000000 1080.000000"
 preserveAspectRatio="xMidYMid meet">
<metadata>
Created by potrace 1.16, written by Peter Selinger 2001-2019
</metadata>
<g transform="translate(0.000000,1080.000000) scale(0.100000,-0.100000)"
fill="#000000" stroke="none">
<path d="M0 5400 l0 -5400 5400 0 5400 0 0 5400 0 5400 -5400 0 -5400 0 0
-5400z m6772 2373 c219 -70 403 -234 483 -431 57 -141 56 -103 53 -1492 l-3
-1275 -27 -80 c-40 -117 -92 -199 -188 -296 -94 -95 -174 -146 -298 -188 l-77
-26 -1325 0 -1325 0 -88 31 c-123 45 -189 87 -288 184 -72 71 -93 101 -132
180 -89 180 -82 58 -82 1510 0 1441 -5 1333 74 1495 105 212 309 366 539 405
26 4 625 7 1332 6 1283 -1 1285 -1 1352 -23z"/>
<path d="M4083 7615 c-206 -45 -383 -227 -428 -440 -22 -105 -22 -2465 0
-2570 45 -213 210 -387 420 -440 90 -23 2541 -23 2630 0 107 27 184 72 265
154 87 88 122 148 150 257 19 75 20 114 20 1313 0 1070 -2 1245 -15 1300 -49
207 -219 377 -427 426 -90 21 -2518 21 -2615 0z m1711 -536 c25 -12 291 -294
313 -333 9 -16 12 -219 12 -856 0 -636 -3 -840 -12 -857 -27 -48 -292 -326
-323 -339 -41 -17 -696 -20 -756 -4 -29 8 -69 44 -180 161 -78 82 -148 159
-155 172 -8 14 -12 71 -13 167 0 126 3 149 20 177 27 45 64 66 116 66 89 0
134 -62 134 -186 0 -48 5 -88 14 -105 8 -15 49 -61 90 -102 l76 -75 238 -5
c130 -3 252 -2 271 2 37 7 160 120 187 170 11 21 14 75 14 243 0 237 -5 261
-58 300 -26 19 -47 20 -402 25 -223 3 -382 9 -392 15 -24 14 -269 272 -291
305 -16 26 -18 56 -15 372 l3 344 30 36 c66 78 261 284 285 300 23 16 60 18
397 18 255 0 380 -4 397 -11z"/>
<path d="M5135 6798 c-30 -16 -94 -78 -126 -122 l-29 -39 0 -244 c0 -166 4
-251 12 -266 22 -43 110 -136 143 -151 28 -13 79 -16 315 -16 415 0 390 -24
390 377 l0 282 -70 79 c-38 44 -85 87 -104 96 -28 13 -73 16 -273 16 -154 -1
-245 -5 -258 -12z"/>
</g>
</svg>
