<?xml version="1.0" standalone="no"?>
<!DOCTYPE svg PUBLIC "-//W3C//DTD SVG 20010904//EN"
 "http://www.w3.org/TR/2001/REC-SVG-20010904/DTD/svg10.dtd">
<svg version="1.0" xmlns="http://www.w3.org/2000/svg"
 width="1080.000000pt" height="1080.000000pt" viewBox="0 0 1080.000000 1080.000000"
 preserveAspectRatio="xMidYMid meet">
<metadata>
Created by potrace 1.16, written by Peter Selinger 2001-2019
</metadata>
<g transform="translate(0.000000,1080.000000) scale(0.100000,-0.100000)"
fill="#000000" stroke="none">
<path d="M0 5400 l0 -5400 5400 0 5400 0 0 5400 0 5400 -5400 0 -5400 0 0
-5400z m6750 2377 c258 -69 458 -266 532 -524 l23 -78 0 -1285 c0 -1451 6
-1330 -81 -1509 -84 -171 -237 -299 -439 -369 l-80 -27 -1310 0 -1310 0 -75
23 c-300 95 -498 332 -530 635 -13 122 -13 2371 0 2494 30 280 226 530 485
618 128 44 128 44 1455 41 1169 -2 1270 -3 1330 -19z m-2583 -4184 c70 -33
103 -125 103 -288 0 -167 -31 -253 -104 -286 -49 -22 -143 -25 -189 -5 -83 35
-107 99 -107 285 0 194 27 267 110 300 41 16 148 13 187 -6z m518 -23 c36 -35
55 -82 55 -137 l0 -33 -60 0 -60 0 0 36 c0 66 -42 104 -94 84 -36 -13 -49 -73
-50 -220 0 -133 13 -193 44 -210 52 -28 94 9 105 90 l7 50 59 0 c66 0 65 2 48
-82 -21 -101 -80 -148 -184 -148 -70 0 -115 19 -148 61 -37 50 -47 100 -47
244 0 144 10 194 47 244 38 49 75 62 166 58 72 -3 80 -6 112 -37z m495 -14 l0
-44 -64 -7 c-34 -4 -83 -5 -107 -4 l-44 4 0 -70 0 -70 98 -3 97 -3 0 -44 0
-44 -97 -3 -98 -3 0 -80 0 -80 108 -3 107 -3 0 -44 0 -45 -170 0 -170 0 0 295
0 295 170 0 170 0 0 -44z m390 -78 c17 -68 52 -197 76 -288 24 -90 44 -168 44
-172 0 -4 -27 -8 -60 -8 -57 0 -60 1 -66 28 -22 96 -11 87 -102 90 l-81 3 -13
-61 -12 -60 -62 0 -61 0 12 48 c7 26 39 144 70 262 32 118 59 224 62 235 3 11
6 26 9 33 2 8 27 12 77 12 l74 0 33 -122z m405 -81 l70 -198 3 200 2 201 55 0
55 0 0 -295 0 -295 -69 0 -68 0 -68 193 c-37 105 -71 196 -76 202 -5 5 -9 -75
-9 -193 l0 -202 -52 0 -53 0 3 295 3 296 67 -3 67 -3 70 -198z m425 -92 l0
-295 -60 0 -60 0 0 295 0 295 60 0 60 0 0 -295z m404 198 c52 -192 126 -478
126 -485 0 -5 -27 -8 -60 -8 l-59 0 -13 60 -12 60 -82 0 -82 0 -6 -30 c-3 -16
-9 -43 -12 -60 -5 -29 -7 -30 -65 -30 -39 0 -59 4 -59 12 0 11 103 407 137
526 l14 52 73 0 74 0 26 -97z"/>
<path d="M4070 7614 c-153 -40 -305 -162 -369 -296 -64 -136 -62 -69 -59
-1461 l3 -1262 23 -62 c68 -181 211 -314 399 -371 53 -15 123 -17 793 -17 404
0 985 2 1290 5 l555 5 70 28 c130 51 245 157 308 283 59 118 57 57 57 1424 0
1110 -2 1259 -16 1314 -46 179 -185 329 -370 399 l-59 22 -1285 2 c-1099 2
-1293 0 -1340 -13z m1727 -537 c31 -17 303 -317 314 -345 12 -32 12 -1654 -1
-1686 -9 -23 -197 -237 -281 -318 l-38 -38 -381 0 c-311 0 -386 3 -408 14 -29
15 -289 284 -309 320 -18 32 -17 287 1 331 38 90 177 101 231 18 13 -19 20
-56 25 -129 l6 -102 69 -77 c102 -113 89 -109 369 -112 281 -3 268 -6 379 113
l67 73 0 232 c0 220 -1 233 -22 266 -37 61 -49 63 -433 63 -272 0 -352 3 -378
14 -36 15 -260 239 -301 300 l-26 39 0 326 c1 232 4 334 13 353 16 35 274 316
312 339 28 18 57 19 400 19 272 -1 376 -4 392 -13z"/>
<path d="M5073 6748 c-100 -96 -103 -103 -103 -361 0 -249 1 -252 80 -340 81
-90 67 -87 400 -87 322 0 333 2 370 63 19 30 20 52 20 312 0 317 6 289 -89
388 -86 90 -74 87 -361 87 l-252 0 -65 -62z"/>
<path d="M4034 3520 c-38 -15 -49 -64 -48 -220 0 -115 4 -152 17 -177 19 -35
46 -48 83 -39 44 11 57 48 62 171 5 136 -3 217 -26 244 -20 24 -59 33 -88 21z"/>
<path d="M5456 3469 c-8 -21 -46 -210 -46 -226 0 -9 16 -13 55 -13 30 0 55 2
55 4 0 13 -52 241 -55 245 -3 2 -7 -2 -9 -10z"/>
<path d="M6681 3400 c-12 -50 -24 -109 -27 -131 l-7 -39 57 0 c31 0 56 4 56 9
0 14 -51 245 -54 249 -2 2 -13 -38 -25 -88z"/>
</g>
</svg>
