<?xml version="1.0" standalone="no"?>
<!DOCTYPE svg PUBLIC "-//W3C//DTD SVG 20010904//EN"
 "http://www.w3.org/TR/2001/REC-SVG-20010904/DTD/svg10.dtd">
<svg version="1.0" xmlns="http://www.w3.org/2000/svg"
 width="1080.000000pt" height="1080.000000pt" viewBox="0 0 1080.000000 1080.000000"
 preserveAspectRatio="xMidYMid meet">
<metadata>
Created by potrace 1.16, written by Peter Selinger 2001-2019
</metadata>
<g transform="translate(0.000000,1080.000000) scale(0.100000,-0.100000)"
fill="#000000" stroke="none">
<path d="M0 5400 l0 -5400 5400 0 5400 0 0 5400 0 5400 -5400 0 -5400 0 0
-5400z m6772 2373 c219 -70 403 -234 483 -431 57 -141 56 -103 53 -1492 l-3
-1275 -27 -80 c-40 -117 -92 -199 -188 -296 -94 -95 -174 -146 -298 -188 l-77
-26 -1325 0 -1325 0 -88 31 c-123 45 -189 87 -288 184 -72 71 -93 101 -132
180 -89 180 -82 58 -82 1510 0 1441 -5 1333 74 1495 105 212 309 366 539 405
26 4 625 7 1332 6 1283 -1 1285 -1 1352 -23z"/>
<path d="M4083 7615 c-206 -45 -383 -227 -428 -440 -22 -105 -22 -2465 0
-2570 45 -213 210 -387 420 -440 90 -23 2541 -23 2630 0 107 27 184 72 265
154 87 88 122 148 150 257 19 75 20 114 20 1313 0 1070 -2 1245 -15 1300 -49
207 -219 377 -427 426 -90 21 -2518 21 -2615 0z m1711 -536 c26 -12 295 -299
314 -336 17 -32 16 -1679 -1 -1710 -27 -48 -292 -326 -323 -339 -41 -17 -696
-20 -756 -4 -29 8 -69 44 -180 161 -78 82 -148 159 -155 172 -8 14 -12 71 -13
167 0 126 3 149 20 177 40 66 103 85 170 51 61 -31 80 -71 80 -171 0 -48 5
-88 14 -105 8 -15 49 -61 90 -102 l76 -75 243 -6 c133 -3 255 -2 272 3 32 9
158 127 181 170 11 21 14 75 14 243 0 237 -5 261 -58 300 -26 19 -47 20 -402
25 -317 4 -378 7 -397 21 -38 27 -267 270 -285 302 -16 28 -18 66 -18 362 0
306 1 332 19 361 22 36 272 306 304 329 18 13 77 15 394 15 253 0 380 -4 397
-11z"/>
<path d="M5135 6798 c-30 -16 -94 -78 -126 -122 l-29 -39 0 -244 c0 -166 4
-251 12 -266 22 -43 110 -136 143 -151 28 -13 79 -16 315 -16 415 0 390 -24
390 377 l0 282 -70 79 c-38 44 -85 87 -104 96 -28 13 -73 16 -273 16 -154 -1
-245 -5 -258 -12z"/>
</g>
</svg>
