<?xml version="1.0" standalone="no"?>
<!DOCTYPE svg PUBLIC "-//W3C//DTD SVG 20010904//EN"
 "http://www.w3.org/TR/2001/REC-SVG-20010904/DTD/svg10.dtd">
<svg version="1.0" xmlns="http://www.w3.org/2000/svg"
 width="1080.000000pt" height="1080.000000pt" viewBox="0 0 1080.000000 1080.000000"
 preserveAspectRatio="xMidYMid meet">
<metadata>
Created by potrace 1.16, written by Peter Selinger 2001-2019
</metadata>
<g transform="translate(0.000000,1080.000000) scale(0.100000,-0.100000)"
fill="#000000" stroke="none">
<path d="M0 5400 l0 -5400 5400 0 5400 0 0 5400 0 5400 -5400 0 -5400 0 0
-5400z m6772 2373 c219 -70 403 -234 483 -431 57 -141 56 -103 53 -1492 l-3
-1275 -27 -80 c-40 -117 -92 -199 -188 -296 -94 -95 -174 -146 -298 -188 l-77
-26 -1325 0 -1325 0 -88 31 c-123 45 -189 87 -288 184 -72 71 -93 101 -132
180 -89 180 -82 58 -82 1510 0 1441 -5 1333 74 1495 105 212 309 366 539 405
26 4 625 7 1332 6 1283 -1 1285 -1 1352 -23z"/>
<path d="M4083 7615 c-206 -45 -383 -227 -428 -440 -22 -105 -22 -2465 0
-2570 45 -213 210 -387 420 -440 90 -23 2541 -23 2630 0 107 27 184 72 265
154 87 88 122 148 150 257 19 75 20 114 20 1313 0 1070 -2 1245 -15 1300 -49
207 -219 377 -427 426 -90 21 -2518 21 -2615 0z m1719 -543 c32 -20 289 -297
306 -329 17 -31 17 -1675 1 -1706 -11 -20 -102 -124 -244 -276 -27 -29 -64
-60 -82 -67 -40 -17 -695 -20 -755 -4 -29 8 -69 44 -180 161 -79 83 -148 160
-155 172 -19 34 -17 300 2 337 36 70 123 92 193 50 45 -27 62 -74 62 -167 1
-43 6 -88 13 -100 7 -12 45 -56 86 -97 53 -54 82 -77 105 -80 60 -10 460 -13
490 -5 18 5 64 42 111 89 l80 80 3 236 c5 355 34 334 -460 334 -318 0 -356 2
-384 18 -42 23 -291 284 -304 317 -6 16 -10 160 -10 351 0 259 3 331 14 352
20 38 287 324 317 339 18 10 120 13 394 13 335 0 373 -2 397 -18z"/>
<path d="M5135 6798 c-30 -16 -94 -78 -126 -122 l-29 -39 0 -252 0 -252 65
-75 c39 -46 77 -80 96 -87 20 -7 133 -11 311 -11 310 0 332 4 368 62 19 31 20
50 20 314 0 319 9 283 -93 391 -78 83 -80 83 -354 83 -154 -1 -245 -5 -258
-12z"/>
</g>
</svg>
