<?xml version="1.0" standalone="no"?>
<!DOCTYPE svg PUBLIC "-//W3C//DTD SVG 20010904//EN"
 "http://www.w3.org/TR/2001/REC-SVG-20010904/DTD/svg10.dtd">
<svg version="1.0" xmlns="http://www.w3.org/2000/svg"
 width="1080.000000pt" height="1080.000000pt" viewBox="0 0 1080.000000 1080.000000"
 preserveAspectRatio="xMidYMid meet">
<metadata>
Created by potrace 1.16, written by Peter Selinger 2001-2019
</metadata>
<g transform="translate(0.000000,1080.000000) scale(0.100000,-0.100000)"
fill="#000000" stroke="none">
<path d="M0 5400 l0 -5400 5400 0 5400 0 0 5400 0 5400 -5400 0 -5400 0 0
-5400z m6755 2377 c33 -9 102 -38 154 -64 75 -37 111 -64 176 -128 122 -119
189 -246 214 -406 15 -89 15 -2490 0 -2579 -26 -162 -86 -277 -209 -400 -97
-97 -163 -139 -287 -184 l-88 -31 -1290 -3 c-1167 -2 -1297 -1 -1365 14 -274
60 -483 257 -562 530 l-23 79 0 1285 c0 1214 1 1289 18 1349 69 242 224 418
449 508 128 52 109 52 1478 50 1178 -2 1280 -4 1335 -20z m-2563 -4219 c59
-45 73 -97 73 -273 0 -157 -8 -201 -46 -250 -33 -41 -75 -57 -155 -58 -82 0
-125 19 -160 71 -43 63 -56 295 -24 414 13 46 54 96 95 114 19 9 57 13 106 12
65 -3 81 -7 111 -30z m468 14 c44 -23 80 -90 80 -149 l0 -43 -60 0 -60 0 0 31
c0 32 -15 69 -34 81 -6 4 -23 8 -38 8 -48 0 -62 -37 -67 -173 -5 -195 13 -267
70 -267 32 0 69 44 69 84 0 61 6 66 72 66 l61 0 -7 -57 c-8 -68 -32 -119 -69
-146 -53 -40 -191 -40 -245 0 -55 41 -67 83 -70 256 -3 124 0 168 13 206 16
51 54 93 95 110 43 17 151 13 190 -7z m520 -42 l0 -49 -106 -3 -107 -3 -2 -45
c-3 -92 -6 -90 107 -90 l99 0 -3 -47 -3 -48 -97 -3 -98 -3 0 -79 0 -80 105 0
c58 0 105 -3 106 -7 0 -5 2 -22 3 -39 2 -18 0 -37 -3 -43 -5 -8 -57 -11 -172
-9 l-164 3 -3 298 -2 297 170 0 170 0 0 -50z m369 13 c5 -21 39 -149 75 -285
36 -136 66 -254 66 -263 0 -12 -13 -15 -60 -15 l-59 0 -10 38 c-5 20 -11 48
-13 62 -3 24 -6 25 -83 28 l-80 3 -15 -63 -15 -63 -54 -3 c-30 -2 -57 0 -62 5
-5 6 121 512 146 581 3 8 28 12 79 12 l75 0 10 -37z m420 -146 c35 -100 68
-186 72 -191 5 -6 9 73 9 182 l0 192 55 0 55 0 0 -300 0 -300 -64 0 c-39 0
-67 5 -73 13 -8 10 -84 219 -126 347 -10 30 -13 5 -17 -160 l-5 -195 -55 0
-55 0 -3 298 -2 297 72 0 73 0 64 -183z m429 -114 l-3 -298 -57 -3 -57 -3 -3
293 c-2 161 -2 296 0 301 2 4 30 7 63 7 l59 0 -2 -297z m395 245 c43 -151 137
-517 137 -531 0 -14 -11 -17 -59 -17 l-60 0 -13 63 -14 62 -79 0 -78 0 -16
-60 -16 -60 -54 -3 c-30 -2 -57 0 -61 5 -5 4 9 71 30 148 20 77 54 203 74 280
20 77 39 146 41 153 3 8 28 12 79 12 l75 0 14 -52z"/>
<path d="M4076 7614 c-89 -21 -193 -81 -262 -149 -67 -67 -105 -125 -143 -224
l-26 -66 -3 -1252 c-2 -1067 0 -1262 12 -1322 44 -209 211 -382 421 -436 89
-23 2537 -22 2634 0 194 46 364 218 416 420 13 51 15 222 15 1301 0 1203 -1
1243 -20 1318 -28 109 -63 169 -150 256 -83 84 -162 129 -271 155 -93 22
-2532 21 -2623 -1z m1718 -535 c26 -12 295 -299 314 -336 17 -31 17 -1675 1
-1706 -11 -20 -102 -124 -244 -276 -27 -29 -64 -60 -82 -67 -40 -17 -695 -20
-755 -4 -29 8 -69 44 -180 161 -78 82 -148 159 -155 172 -8 14 -12 71 -13 167
0 126 3 149 20 177 38 62 110 84 175 52 54 -27 69 -60 75 -167 3 -53 10 -105
15 -114 18 -30 149 -160 170 -168 17 -6 430 -16 504 -11 26 1 164 129 187 173
11 21 14 77 14 243 0 237 -5 261 -58 300 -26 19 -47 20 -402 25 -317 4 -378 7
-397 21 -30 21 -264 265 -285 298 -16 23 -18 59 -18 361 0 308 2 337 18 365
23 36 273 307 304 329 19 14 73 16 395 16 253 0 380 -4 397 -11z"/>
<path d="M5125 6792 c-40 -25 -134 -128 -141 -156 -3 -12 -4 -132 -2 -267 l3
-245 59 -66 c88 -101 78 -98 406 -98 415 0 390 -24 390 377 l0 282 -32 38
c-76 88 -112 123 -143 137 -27 13 -76 16 -272 16 -213 0 -241 -2 -268 -18z"/>
<path d="M4013 3474 c-15 -23 -19 -54 -21 -174 -4 -168 5 -216 46 -231 36 -14
68 -4 89 28 15 23 18 51 18 184 0 144 -2 160 -21 186 -31 41 -86 44 -111 7z"/>
<path d="M5457 3443 c-9 -29 -47 -212 -47 -223 0 -6 25 -10 56 -10 48 0 55 2
50 18 -2 9 -14 64 -26 122 -13 58 -24 106 -25 108 -2 2 -6 -5 -8 -15z"/>
<path d="M6682 3373 c-11 -48 -23 -105 -27 -125 l-7 -38 57 0 c56 0 57 0 51
26 -4 14 -16 69 -27 122 -10 52 -21 97 -23 99 -2 3 -13 -35 -24 -84z"/>
</g>
</svg>
