<?xml version="1.0" standalone="no"?>
<!DOCTYPE svg PUBLIC "-//W3C//DTD SVG 20010904//EN"
 "http://www.w3.org/TR/2001/REC-SVG-20010904/DTD/svg10.dtd">
<svg version="1.0" xmlns="http://www.w3.org/2000/svg"
 width="1080.000000pt" height="1080.000000pt" viewBox="0 0 1080.000000 1080.000000"
 preserveAspectRatio="xMidYMid meet">
<metadata>
Created by potrace 1.16, written by Peter Selinger 2001-2019
</metadata>
<g transform="translate(0.000000,1080.000000) scale(0.100000,-0.100000)"
fill="#000000" stroke="none">
<path d="M0 5400 l0 -5400 5400 0 5400 0 0 5400 0 5400 -5400 0 -5400 0 0
-5400z m6795 2356 c115 -37 197 -89 295 -186 71 -71 93 -101 131 -180 26 -52
53 -117 60 -145 12 -41 14 -282 14 -1360 l0 -1310 -23 -70 c-30 -89 -48 -129
-86 -185 -33 -50 -106 -134 -106 -122 0 4 -5 -1 -11 -11 -30 -52 -196 -145
-316 -177 -70 -19 -115 -20 -1366 -20 -720 0 -1307 4 -1323 9 -16 5 -49 15
-74 22 -111 33 -207 94 -311 199 -98 100 -162 225 -187 370 -9 50 -8 2556 0
2608 4 24 10 48 13 53 4 5 8 21 11 35 9 50 67 156 124 228 103 130 236 216
392 254 61 15 190 17 1375 16 l1308 -2 80 -26z m-2136 -4185 c40 -28 64 -67
71 -115 5 -34 3 -46 -7 -51 -22 -8 -93 -6 -93 3 -2 41 -14 90 -25 101 -7 7
-30 14 -51 15 -33 1 -40 -3 -58 -34 -17 -29 -21 -56 -24 -164 -6 -165 7 -230
49 -252 64 -33 104 7 112 113 1 18 8 22 50 25 33 2 51 -1 54 -10 9 -22 -7 -96
-27 -129 -51 -84 -215 -96 -291 -22 -42 41 -54 96 -54 254 0 129 2 144 25 189
29 58 63 86 117 96 52 11 123 2 152 -19z m-496 3 c78 -38 101 -115 95 -319 -4
-147 -13 -172 -71 -219 -35 -28 -45 -31 -110 -31 -94 0 -143 23 -177 85 -23
43 -25 53 -25 207 0 116 4 166 13 175 6 6 12 19 12 28 0 20 58 76 85 83 47 11
148 6 178 -9z m1007 -29 l0 -34 -102 -3 -103 -3 -3 -82 -3 -83 101 0 100 0 0
-35 0 -35 -100 0 -101 0 3 -92 3 -93 95 -2 c52 -1 101 -2 108 -2 7 -1 12 -15
12 -36 l0 -35 -165 0 -165 0 0 285 0 285 160 0 160 0 0 -35z m393 -72 c23 -96
41 -162 101 -386 9 -32 16 -62 16 -68 0 -6 -22 -9 -52 -7 l-53 3 -15 58 -16
58 -77 3 c-88 3 -92 0 -105 -77 l-7 -42 -59 -3 c-39 -2 -56 0 -51 8 3 6 9 23
11 38 3 15 27 110 55 212 27 102 54 205 60 230 6 25 13 53 16 63 4 14 16 17
77 17 l73 0 26 -107z m342 90 c10 -25 104 -293 104 -296 -1 -11 33 -78 38 -74
3 3 6 91 8 194 l2 188 47 3 46 3 0 -285 0 -286 -64 0 c-58 0 -64 2 -69 23 -3
12 -24 74 -46 137 -23 63 -50 138 -60 166 -38 107 -40 101 -41 -118 l0 -208
-50 0 -50 0 0 285 0 285 64 0 c51 0 65 -3 71 -17z m485 -268 l0 -285 -55 0
-55 0 0 285 0 285 55 0 55 0 0 -285z m418 163 c16 -68 44 -177 62 -243 17 -66
32 -128 33 -137 1 -10 5 -18 9 -18 4 0 8 -11 8 -26 0 -24 -2 -25 -52 -22 l-53
3 -11 51 c-6 28 -14 57 -18 63 -10 15 -153 15 -162 -1 -4 -7 -13 -35 -19 -63
l-11 -50 -57 -3 -56 -3 25 88 c14 48 32 115 39 148 8 33 25 98 38 145 14 47
31 109 38 138 l13 52 71 0 72 0 31 -122z"/>
<path d="M4028 7606 c-37 -13 -87 -35 -112 -50 -117 -69 -220 -203 -260 -341
-20 -69 -21 -92 -24 -1280 -3 -1201 -1 -1317 30 -1394 76 -192 199 -314 375
-373 l68 -23 1285 0 1285 0 67 22 c214 72 359 239 398 457 6 39 10 472 10
1267 0 1336 2 1286 -64 1424 -19 39 -55 94 -81 123 -44 49 -146 133 -170 139
-5 1 -43 14 -84 28 l-74 25 -1291 -1 -1291 0 -67 -23z m1754 -530 c19 -8 61
-45 93 -82 81 -91 125 -140 175 -193 23 -25 46 -55 51 -69 5 -13 9 -381 9
-850 0 -770 -1 -829 -18 -853 -37 -56 -285 -319 -306 -324 -37 -9 -730 -12
-761 -4 -39 11 -317 298 -326 337 -12 51 -9 296 4 321 45 89 185 85 223 -6 8
-18 14 -67 14 -110 1 -43 6 -88 13 -100 27 -49 157 -174 189 -184 18 -5 142
-9 275 -9 l242 0 38 33 c70 61 125 122 139 154 11 24 14 85 14 246 0 206 -1
215 -22 247 -13 18 -36 43 -51 54 -27 20 -43 21 -400 26 -352 5 -373 6 -399
25 -15 11 -25 26 -23 33 3 7 1 10 -4 7 -11 -6 -97 83 -93 97 1 5 -2 7 -7 4 -9
-6 -133 121 -151 154 -15 29 -13 679 3 707 13 23 212 246 272 303 l36 35 297
5 c163 3 329 7 368 8 44 1 85 -3 106 -12z"/>
<path d="M5135 6806 c-34 -14 -132 -113 -153 -152 -10 -19 -12 -85 -10 -278
l3 -253 59 -67 c95 -109 65 -101 416 -98 340 4 349 5 382 72 16 31 18 68 18
298 0 207 -3 269 -14 295 -19 42 -132 160 -173 181 -27 13 -70 16 -265 16
-171 -1 -241 -4 -263 -14z"/>
<path d="M4016 3505 c-32 -35 -39 -82 -34 -242 5 -140 15 -175 58 -193 41 -17
76 -3 96 38 15 29 18 63 19 162 0 200 -14 246 -78 257 -30 4 -40 1 -61 -22z"/>
<path d="M5456 3479 c-2 -8 -9 -34 -14 -59 -6 -25 -18 -75 -26 -112 -24 -101
-25 -98 44 -98 71 0 69 -10 36 153 -24 119 -32 142 -40 116z"/>
<path d="M6692 3463 c-6 -21 -15 -60 -21 -88 -37 -164 -38 -159 28 -163 80 -5
77 -18 33 187 -12 51 -23 95 -26 98 -2 3 -9 -12 -14 -34z"/>
</g>
</svg>
