<?xml version="1.0" standalone="no"?>
<!DOCTYPE svg PUBLIC "-//W3C//DTD SVG 20010904//EN"
 "http://www.w3.org/TR/2001/REC-SVG-20010904/DTD/svg10.dtd">
<svg version="1.0" xmlns="http://www.w3.org/2000/svg"
 width="1080.000000pt" height="1080.000000pt" viewBox="0 0 1080.000000 1080.000000"
 preserveAspectRatio="xMidYMid meet">
<metadata>
Created by potrace 1.16, written by Peter Selinger 2001-2019
</metadata>
<g transform="translate(0.000000,1080.000000) scale(0.100000,-0.100000)"
fill="#000000" stroke="none">
<path d="M0 5400 l0 -5400 5400 0 5400 0 0 5400 0 5400 -5400 0 -5400 0 0
-5400z m6772 2373 c219 -70 403 -234 483 -431 57 -141 56 -103 53 -1492 l-3
-1275 -27 -80 c-40 -117 -92 -199 -188 -296 -94 -95 -174 -146 -298 -188 l-77
-26 -1325 0 -1325 0 -88 31 c-123 45 -189 87 -288 184 -72 71 -93 101 -132
180 -89 180 -82 58 -82 1510 0 1441 -5 1333 74 1495 105 212 309 366 539 405
26 4 625 7 1332 6 1283 -1 1285 -1 1352 -23z m-2580 -4315 c60 -46 73 -96 73
-283 0 -140 -2 -165 -20 -200 l-20 -40 -157 -3 -157 -3 -15 29 c-49 95 -46
362 6 453 34 60 79 80 174 77 70 -3 85 -7 116 -30z m468 13 c40 -21 75 -83 84
-148 l6 -43 -65 0 -65 0 0 30 c0 16 -5 41 -12 55 -20 44 -86 45 -110 2 -14
-26 -23 -233 -14 -310 12 -90 61 -122 111 -72 20 19 25 34 25 75 l0 50 66 0
67 0 -6 -53 c-3 -29 -12 -70 -21 -90 l-15 -37 -154 0 c-170 0 -159 -5 -187 74
-14 38 -14 303 -1 354 14 50 54 100 96 118 46 20 153 18 195 -5z m520 -41 l0
-50 -105 0 -105 0 0 -70 0 -70 100 0 100 0 0 -50 0 -50 -100 0 -100 0 0 -80 0
-80 110 0 110 0 0 -25 0 -25 -175 0 -175 0 0 275 0 275 170 0 170 0 0 -50z
m364 33 c5 -19 67 -252 110 -415 14 -54 26 -102 26 -108 0 -15 -120 -13 -124
3 -3 6 -7 25 -10 40 l-7 28 -76 -3 -77 -3 -9 -37 -9 -38 -63 0 -63 0 34 133
c56 216 106 401 111 410 2 4 37 7 78 7 62 0 74 -3 79 -17z m425 -165 c35 -101
68 -187 73 -192 4 -6 8 76 8 182 l0 192 55 0 55 0 0 -275 0 -275 -78 0 -78 0
-62 173 -61 172 0 -172 -1 -173 -60 0 -60 0 0 275 0 275 73 0 72 0 64 -182z
m431 -93 l0 -276 -62 3 -63 3 -3 260 c-1 143 0 265 3 272 3 9 25 13 65 13 l60
0 0 -275z m394 223 c8 -29 31 -116 51 -193 20 -77 45 -171 56 -210 10 -38 19
-75 19 -82 0 -18 -119 -18 -124 0 -3 6 -7 25 -10 40 l-7 28 -76 -3 -77 -3 -9
-37 -9 -38 -64 0 c-46 0 -62 3 -59 13 2 6 34 125 70 262 36 138 68 256 70 263
3 8 28 12 79 12 l75 0 15 -52z"/>
<path d="M4083 7615 c-206 -45 -383 -227 -428 -440 -22 -105 -22 -2465 0
-2570 45 -213 210 -387 420 -440 90 -23 2541 -23 2630 0 107 27 184 72 265
154 87 88 122 148 150 257 19 75 20 114 20 1313 0 1070 -2 1245 -15 1300 -49
207 -219 377 -427 426 -90 21 -2518 21 -2615 0z m1715 -539 c28 -14 287 -291
309 -330 9 -16 12 -219 12 -856 0 -636 -3 -840 -12 -857 -27 -48 -292 -326
-323 -339 -48 -20 -720 -20 -767 0 -49 20 -325 312 -333 351 -3 17 -4 96 -2
174 l3 143 36 32 c68 62 156 52 206 -23 19 -28 23 -48 23 -113 0 -45 6 -92 14
-111 8 -18 48 -66 90 -107 l76 -75 238 -5 c130 -3 252 -2 271 2 37 7 160 120
187 170 11 21 14 75 14 243 0 246 -5 267 -69 303 -38 21 -48 22 -394 22 -232
0 -364 4 -380 11 -25 11 -284 278 -304 313 -15 25 -18 671 -4 708 10 27 272
315 310 340 24 16 61 18 399 18 301 0 378 -3 400 -14z"/>
<path d="M5135 6798 c-30 -16 -73 -58 -116 -111 l-39 -49 0 -245 c0 -165 4
-251 12 -266 19 -37 108 -131 141 -149 28 -16 64 -18 315 -18 416 0 392 -23
392 367 0 149 -4 282 -9 295 -13 33 -144 166 -176 178 -37 14 -494 13 -520 -2z"/>
<path d="M4028 3388 c-30 -23 -38 -66 -38 -209 0 -157 11 -202 53 -213 37 -9
75 9 89 41 7 17 12 87 12 180 1 139 -1 154 -20 180 -24 31 -69 41 -96 21z"/>
</g>
</svg>
