<?xml version="1.0" standalone="no"?>
<!DOCTYPE svg PUBLIC "-//W3C//DTD SVG 20010904//EN"
 "http://www.w3.org/TR/2001/REC-SVG-20010904/DTD/svg10.dtd">
<svg version="1.0" xmlns="http://www.w3.org/2000/svg"
 width="1080.000000pt" height="1080.000000pt" viewBox="0 0 1080.000000 1080.000000"
 preserveAspectRatio="xMidYMid meet">
<metadata>
Created by potrace 1.16, written by Peter Selinger 2001-2019
</metadata>
<g transform="translate(0.000000,1080.000000) scale(0.100000,-0.100000)"
fill="#000000" stroke="none">
<path d="M0 5400 l0 -5400 5400 0 5400 0 0 5400 0 5400 -5400 0 -5400 0 0
-5400z m6716 2381 c275 -57 487 -254 566 -526 l23 -80 0 -1285 c0 -1449 6
-1331 -80 -1506 -91 -185 -262 -324 -470 -380 -67 -18 -125 -19 -1370 -19
l-1300 0 -75 23 c-212 67 -377 207 -466 399 -72 154 -68 64 -72 1413 -2 796 1
1248 7 1312 31 287 224 534 486 623 126 43 134 43 1425 44 1169 1 1240 0 1326
-18z m-2549 -4188 c70 -33 103 -125 103 -288 0 -103 -16 -190 -42 -234 -27
-44 -87 -71 -160 -71 -151 0 -200 74 -200 305 0 182 30 261 112 294 41 16 148
13 187 -6z m489 1 c45 -21 74 -71 81 -139 l6 -55 -62 0 -61 0 0 36 c0 45 -15
73 -46 84 -40 16 -71 -3 -84 -50 -14 -53 -14 -292 0 -336 30 -91 120 -61 135
44 l7 52 59 0 c66 0 65 2 49 -80 -19 -101 -80 -150 -185 -150 -70 0 -115 19
-148 61 -37 50 -47 100 -47 245 0 187 28 260 110 293 40 16 148 13 186 -5z
m522 -41 l-3 -48 -95 -2 c-52 -1 -101 -2 -108 -2 -10 -1 -12 -19 -10 -68 l3
-68 98 -3 97 -3 0 -44 0 -44 -97 -3 -98 -3 0 -80 0 -80 108 -3 107 -3 0 -44 0
-45 -170 0 -170 0 0 295 0 295 171 0 170 0 -3 -47z m368 20 c4 -16 38 -145 75
-288 38 -143 69 -263 69 -267 0 -5 -27 -8 -59 -8 -65 0 -65 0 -76 74 l-7 46
-83 0 -82 0 -12 -60 -12 -60 -64 0 c-47 0 -63 3 -60 13 2 6 36 134 75 282 39
149 73 276 75 283 3 8 28 12 79 12 74 0 76 -1 82 -27z m429 -176 l70 -198 3
200 2 201 55 0 55 0 0 -295 0 -295 -69 0 -69 0 -25 73 c-90 260 -110 313 -118
322 -5 5 -9 -70 -9 -193 l0 -202 -50 0 -50 0 0 295 0 296 67 -3 68 -3 70 -198z
m425 -92 l0 -295 -60 0 -60 0 0 295 0 295 60 0 60 0 0 -295z m404 198 c52
-192 126 -478 126 -485 0 -5 -27 -8 -60 -8 l-59 0 -13 60 -12 60 -82 0 -82 0
-6 -30 c-3 -16 -9 -43 -12 -60 -5 -29 -7 -30 -65 -30 -38 0 -59 4 -59 12 0 11
108 426 136 526 l15 52 73 0 74 0 26 -97z"/>
<path d="M4070 7614 c-152 -40 -301 -160 -367 -295 -66 -133 -63 -68 -63
-1430 0 -1199 1 -1238 20 -1313 11 -43 32 -101 47 -129 40 -75 165 -198 240
-236 138 -69 40 -65 1447 -62 1373 3 1318 1 1430 57 149 75 259 210 300 371
14 54 16 206 16 1313 0 1382 3 1308 -63 1435 -44 85 -165 203 -247 243 -135
65 -58 62 -1445 61 -1068 0 -1268 -3 -1315 -15z m1730 -539 c15 -8 38 -27 49
-41 12 -15 70 -79 129 -142 59 -62 115 -128 125 -145 16 -29 17 -90 17 -857 0
-698 -2 -829 -15 -853 -7 -15 -77 -96 -155 -181 -124 -135 -146 -155 -183
-164 -56 -13 -723 -5 -758 9 -31 12 -299 290 -316 328 -18 39 -17 282 1 326
38 90 177 101 231 18 13 -19 20 -56 25 -129 l6 -101 70 -78 c38 -42 81 -83 95
-91 36 -18 475 -30 523 -14 19 6 67 45 114 94 l82 84 0 232 c0 219 -1 235 -21
267 -39 63 -41 63 -429 63 -275 0 -358 3 -383 14 -38 16 -287 267 -310 313
-15 28 -17 75 -17 358 0 224 4 333 11 348 10 19 83 101 239 271 84 91 56 86
473 86 305 0 373 -3 397 -15z"/>
<path d="M5073 6748 c-100 -96 -103 -103 -103 -361 0 -249 1 -252 80 -340 81
-90 67 -87 402 -87 414 0 386 -26 389 372 1 231 -1 278 -14 304 -8 16 -50 62
-91 102 l-76 72 -261 0 -261 0 -65 -62z"/>
<path d="M4034 3520 c-38 -15 -48 -64 -48 -216 0 -89 5 -152 13 -171 24 -60
94 -69 128 -17 12 20 18 55 21 139 5 136 -3 217 -26 244 -20 24 -59 33 -88 21z"/>
<path d="M5457 3465 c-9 -29 -47 -207 -47 -222 0 -9 17 -13 55 -13 l56 0 -6
33 c-22 115 -52 220 -58 202z"/>
<path d="M6700 3488 c0 -3 -11 -56 -25 -118 -14 -62 -25 -119 -25 -127 0 -9
16 -13 55 -13 30 0 55 4 55 9 0 16 -51 245 -56 250 -2 2 -4 2 -4 -1z"/>
</g>
</svg>
