<?xml version="1.0" standalone="no"?>
<!DOCTYPE svg PUBLIC "-//W3C//DTD SVG 20010904//EN"
 "http://www.w3.org/TR/2001/REC-SVG-20010904/DTD/svg10.dtd">
<svg version="1.0" xmlns="http://www.w3.org/2000/svg"
 width="1080.000000pt" height="1080.000000pt" viewBox="0 0 1080.000000 1080.000000"
 preserveAspectRatio="xMidYMid meet">
<metadata>
Created by potrace 1.16, written by Peter Selinger 2001-2019
</metadata>
<g transform="translate(0.000000,1080.000000) scale(0.100000,-0.100000)"
fill="#000000" stroke="none">
<path d="M0 5400 l0 -5400 5400 0 5400 0 0 5400 0 5400 -5400 0 -5400 0 0
-5400z m6750 2376 c265 -74 461 -270 537 -536 17 -62 18 -133 18 -1350 l0
-1285 -23 -78 c-73 -252 -248 -432 -507 -519 l-70 -23 -1269 -3 c-1374 -3
-1361 -3 -1494 51 -97 39 -168 86 -246 162 -123 120 -198 275 -216 448 -14
131 -13 2370 1 2494 37 336 293 603 624 652 33 5 627 8 1320 7 1185 -1 1264
-3 1325 -20z m-2582 -4186 c35 -16 47 -29 68 -75 48 -104 43 -360 -8 -444 -28
-44 -87 -71 -160 -71 -101 0 -158 38 -183 124 -18 59 -20 270 -4 346 12 57 49
106 94 126 45 20 142 17 193 -6z m498 -6 c46 -34 65 -67 71 -127 l6 -57 -62 0
-61 0 0 40 c0 30 -7 47 -25 65 -27 28 -33 29 -69 15 -36 -13 -49 -72 -50 -220
-1 -133 12 -193 44 -210 52 -28 95 8 106 88 l7 52 58 0 c33 0 59 -4 59 -8 0
-5 -5 -35 -11 -68 -19 -106 -77 -154 -184 -154 -70 0 -115 19 -148 61 -37 50
-47 100 -47 243 0 180 25 250 102 290 47 24 167 18 204 -10z m514 -29 l0 -44
-107 -3 -108 -3 -3 -72 -3 -73 101 0 100 0 0 -45 0 -44 -97 -3 -98 -3 0 -80 0
-80 108 -3 107 -3 0 -44 0 -45 -170 0 -170 0 0 295 0 295 170 0 170 0 0 -45z
m360 40 c0 -6 78 -304 120 -460 16 -60 30 -113 30 -117 0 -5 -27 -8 -60 -8
-57 0 -60 1 -66 28 -22 96 -11 87 -102 90 l-81 3 -13 -61 -12 -60 -61 0 -62 0
67 253 c37 138 73 271 79 295 l12 42 74 0 c41 0 75 -2 75 -5z m398 -95 c19
-52 50 -142 70 -200 l37 -105 5 200 5 200 53 3 52 3 0 -295 0 -296 -69 0 -68
0 -68 193 c-37 105 -71 196 -76 202 -5 5 -9 -75 -9 -193 l0 -202 -50 0 -50 0
0 295 0 296 67 -3 67 -3 34 -95z m460 -197 l2 -293 -60 0 -60 0 0 295 0 296
58 -3 57 -3 3 -292z m397 230 c9 -38 25 -97 35 -133 33 -118 100 -377 100
-383 0 -4 -27 -7 -60 -7 l-59 0 -13 60 -12 60 -82 0 -82 0 -6 -30 c-3 -16 -9
-43 -12 -60 -5 -29 -7 -30 -65 -30 -39 0 -59 4 -59 12 0 7 16 73 36 148 20 74
49 182 64 240 16 58 33 124 39 148 l12 42 73 0 73 0 18 -67z"/>
<path d="M4073 7616 c-148 -36 -308 -164 -371 -297 -66 -138 -63 -57 -60
-1455 l3 -1269 23 -62 c53 -141 158 -260 287 -324 144 -72 96 -70 1479 -66
l1231 3 80 27 c142 47 261 147 328 274 71 136 67 49 67 1441 0 1108 -2 1261
-16 1315 -41 158 -152 295 -299 368 -126 62 -51 59 -1435 58 -985 -1 -1277 -4
-1317 -13z m1723 -543 c34 -19 258 -258 299 -319 l25 -37 0 -823 c0 -466 -4
-833 -9 -846 -9 -24 -204 -245 -281 -320 l-39 -38 -383 0 c-281 1 -389 4 -404
13 -32 18 -286 284 -306 320 -24 42 -26 279 -4 332 29 69 125 96 191 55 46
-28 65 -82 65 -180 l0 -80 63 -72 c75 -86 102 -107 153 -118 21 -5 135 -10
252 -10 176 0 218 3 244 16 29 15 64 48 144 137 l34 37 0 233 c0 212 -2 235
-20 264 -38 62 -42 63 -430 63 -271 0 -358 3 -383 13 -40 17 -295 280 -313
324 -19 44 -19 654 -1 695 16 34 284 325 317 343 20 11 100 14 390 15 330 0
368 -2 396 -17z"/>
<path d="M5073 6748 c-103 -99 -103 -99 -103 -358 0 -170 3 -229 15 -255 17
-41 108 -141 147 -161 21 -11 87 -14 313 -14 318 0 339 4 375 62 19 31 20 50
20 313 0 317 6 289 -89 388 -86 90 -74 87 -361 87 l-252 0 -65 -62z"/>
<path d="M4034 3520 c-38 -15 -49 -64 -48 -220 0 -117 3 -151 17 -177 33 -62
110 -52 134 17 15 43 17 271 3 321 -6 20 -16 41 -23 47 -19 16 -60 22 -83 12z"/>
<path d="M5453 3455 c-19 -75 -33 -140 -39 -182 l-7 -43 57 0 c31 0 56 2 56 4
0 7 -50 240 -54 251 -2 6 -8 -8 -13 -30z"/>
<path d="M6696 3469 c-24 -102 -46 -211 -46 -224 0 -12 13 -15 55 -15 30 0 55
4 55 9 0 15 -51 245 -55 249 -2 3 -6 -6 -9 -19z"/>
</g>
</svg>
