<?xml version="1.0" standalone="no"?>
<!DOCTYPE svg PUBLIC "-//W3C//DTD SVG 20010904//EN"
 "http://www.w3.org/TR/2001/REC-SVG-20010904/DTD/svg10.dtd">
<svg version="1.0" xmlns="http://www.w3.org/2000/svg"
 width="1080.000000pt" height="1080.000000pt" viewBox="0 0 1080.000000 1080.000000"
 preserveAspectRatio="xMidYMid meet">
<metadata>
Created by potrace 1.16, written by Peter Selinger 2001-2019
</metadata>
<g transform="translate(0.000000,1080.000000) scale(0.100000,-0.100000)"
fill="#000000" stroke="none">
<path d="M0 5400 l0 -5400 5400 0 5400 0 0 5400 0 5400 -5400 0 -5400 0 0
-5400z m6716 2381 c275 -57 487 -254 566 -526 l23 -80 0 -1285 c0 -1449 6
-1331 -80 -1506 -53 -109 -144 -212 -243 -276 -82 -54 -115 -69 -212 -100
l-75 -23 -1305 0 -1305 0 -75 23 c-295 93 -492 324 -530 623 -13 111 -14 2390
0 2512 32 278 228 525 485 612 126 43 134 43 1425 44 1169 1 1240 0 1326 -18z
m-2549 -4188 c70 -33 103 -125 103 -288 0 -103 -16 -190 -42 -234 -27 -44 -87
-71 -160 -71 -151 0 -200 74 -200 305 0 182 30 261 112 294 41 16 148 13 187
-6z m489 1 c45 -21 74 -71 81 -139 l6 -55 -62 0 -61 0 0 36 c0 45 -15 73 -46
84 -40 16 -71 -3 -84 -50 -15 -57 -16 -287 -1 -333 31 -93 121 -66 136 41 l7
52 59 0 c66 0 65 2 49 -80 -19 -101 -80 -150 -185 -150 -70 0 -115 19 -148 61
-37 50 -47 100 -47 245 0 187 28 260 110 293 40 16 148 13 186 -5z m524 -38
c0 -54 -7 -58 -115 -56 -44 1 -86 1 -93 1 -10 -1 -12 -19 -10 -68 l3 -68 98
-3 97 -3 0 -44 0 -44 -97 -3 -98 -3 0 -80 0 -80 108 -3 107 -3 0 -44 0 -45
-170 0 -170 0 0 295 0 295 170 0 170 0 0 -44z m366 17 c4 -16 38 -145 75 -288
38 -143 69 -263 69 -267 0 -5 -27 -8 -60 -8 -57 0 -60 1 -66 28 -22 96 -11 87
-102 90 l-81 3 -12 -61 -12 -60 -63 0 c-46 0 -62 3 -59 13 5 13 134 498 142
532 3 11 6 26 9 33 2 8 27 12 78 12 74 0 76 -1 82 -27z m429 -176 l70 -198 3
200 2 201 55 0 55 0 0 -295 0 -295 -69 0 -68 0 -68 193 c-37 105 -71 196 -76
202 -5 5 -9 -75 -9 -193 l0 -202 -50 0 -50 0 0 295 0 296 67 -3 68 -3 70 -198z
m425 -92 l0 -295 -60 0 -60 0 0 295 0 295 60 0 60 0 0 -295z m404 198 c52
-192 126 -478 126 -485 0 -5 -27 -8 -60 -8 l-59 0 -13 60 -12 60 -82 0 -82 0
-6 -30 c-3 -16 -9 -43 -12 -60 -5 -29 -7 -30 -65 -30 -38 0 -59 4 -59 12 0 11
108 426 136 526 l15 52 73 0 74 0 26 -97z"/>
<path d="M4070 7614 c-152 -40 -301 -160 -367 -295 -66 -133 -63 -68 -63
-1430 0 -1199 1 -1238 20 -1313 27 -108 63 -169 150 -257 80 -81 155 -127 257
-155 81 -23 433 -27 1648 -16 l990 8 60 24 c134 52 246 149 308 268 71 135 67
52 67 1442 0 1382 3 1308 -63 1435 -44 85 -165 203 -247 243 -135 65 -58 62
-1445 61 -1068 0 -1268 -3 -1315 -15z m1727 -537 c31 -17 303 -317 314 -345 5
-13 9 -393 9 -845 0 -694 -2 -826 -14 -849 -19 -36 -292 -334 -313 -342 -9 -4
-185 -7 -390 -7 -305 1 -379 3 -401 15 -35 19 -293 290 -309 325 -18 39 -17
282 1 326 38 90 177 101 231 18 13 -19 20 -56 25 -129 l6 -101 70 -78 c38 -42
81 -83 95 -90 18 -10 96 -15 267 -20 283 -8 271 -11 382 108 l65 69 3 234 c3
227 2 236 -19 271 -38 61 -49 63 -434 63 -271 0 -353 3 -378 14 -38 16 -287
267 -310 313 -15 28 -17 75 -17 358 0 224 4 333 11 348 10 19 83 101 239 271
84 91 56 86 475 86 272 -1 376 -4 392 -13z"/>
<path d="M5073 6748 c-100 -96 -103 -103 -103 -361 0 -249 1 -252 80 -340 81
-90 68 -87 395 -87 318 0 339 4 375 62 19 31 20 50 20 313 0 317 6 289 -89
388 -86 90 -74 87 -361 87 l-252 0 -65 -62z"/>
<path d="M4034 3520 c-37 -15 -48 -64 -48 -215 0 -91 4 -151 12 -171 25 -60
95 -70 129 -18 12 20 18 55 21 139 5 136 -3 217 -26 244 -20 24 -59 33 -88 21z"/>
<path d="M5456 3470 c-16 -64 -46 -211 -46 -225 0 -12 13 -15 55 -15 30 0 55
3 55 8 0 4 -13 63 -29 132 -21 91 -30 118 -35 100z"/>
<path d="M6700 3488 c0 -3 -11 -56 -25 -118 -14 -62 -25 -119 -25 -127 0 -9
16 -13 55 -13 30 0 55 4 55 9 0 16 -51 245 -56 250 -2 2 -4 2 -4 -1z"/>
</g>
</svg>
