<?xml version="1.0" standalone="no"?>
<!DOCTYPE svg PUBLIC "-//W3C//DTD SVG 20010904//EN"
 "http://www.w3.org/TR/2001/REC-SVG-20010904/DTD/svg10.dtd">
<svg version="1.0" xmlns="http://www.w3.org/2000/svg"
 width="1080.000000pt" height="1080.000000pt" viewBox="0 0 1080.000000 1080.000000"
 preserveAspectRatio="xMidYMid meet">
<metadata>
Created by potrace 1.16, written by Peter Selinger 2001-2019
</metadata>
<g transform="translate(0.000000,1080.000000) scale(0.100000,-0.100000)"
fill="#000000" stroke="none">
<path d="M0 5400 l0 -5400 5400 0 5400 0 0 5400 0 5400 -5400 0 -5400 0 0
-5400z m6775 2372 c223 -75 400 -234 480 -429 56 -140 55 -105 55 -1452 0
-1342 1 -1315 -54 -1451 -39 -94 -99 -181 -181 -258 -83 -79 -172 -133 -283
-171 l-77 -26 -1290 -3 c-1401 -3 -1356 -4 -1495 52 -157 64 -301 198 -375
350 -86 175 -80 57 -80 1506 l0 1285 23 78 c67 231 222 405 443 494 130 53 97
52 1479 50 l1285 -2 70 -23z m-2599 -4217 c74 -43 98 -126 92 -319 -3 -115 -7
-137 -28 -181 -31 -62 -88 -95 -165 -95 -107 0 -170 43 -197 132 -16 56 -16
300 0 354 27 93 96 137 203 131 38 -2 78 -11 95 -22z m456 15 c46 -13 95 -68
103 -117 3 -21 8 -48 11 -60 4 -22 1 -23 -59 -23 l-64 0 -6 42 c-4 27 -14 49
-27 60 -51 41 -95 9 -105 -77 -10 -79 -1 -286 13 -312 22 -39 91 -43 108 -5 4
9 10 40 13 67 l6 50 63 3 62 3 0 -34 c0 -88 -48 -172 -113 -196 -68 -26 -177
-8 -220 37 -45 47 -57 100 -58 259 -1 149 8 195 44 247 39 56 140 80 229 56z
m546 -52 l3 -48 -105 0 -106 0 0 -70 0 -69 98 -3 97 -3 3 -47 3 -48 -100 0
-101 0 0 -80 0 -79 108 -3 107 -3 0 -45 0 -45 -172 -3 -173 -2 0 293 c0 162 3
297 7 301 4 3 79 5 167 4 l161 -3 3 -47z m371 15 c5 -21 39 -149 75 -285 36
-136 66 -254 66 -262 0 -13 -12 -16 -60 -16 l-59 0 -10 38 c-5 20 -11 46 -13
57 -3 18 -12 20 -84 23 l-81 3 -13 -61 -13 -60 -65 0 c-56 0 -64 2 -59 18 7
27 65 243 108 407 22 83 41 156 44 163 3 8 28 12 79 12 l75 0 10 -37z m421
-150 c36 -100 69 -185 73 -189 4 -4 7 79 7 184 l0 192 55 0 55 0 0 -300 0
-300 -69 0 c-46 0 -70 4 -73 13 -3 6 -34 93 -69 192 l-64 180 -3 -192 -2 -193
-60 0 -60 0 0 293 c0 162 3 297 7 301 4 4 37 6 73 4 l65 -3 65 -182z m428
-116 l2 -298 -62 3 -63 3 -3 285 c-1 157 0 291 3 298 3 9 22 12 62 10 l58 -3
3 -298z m389 276 c3 -16 39 -149 78 -298 l72 -270 -60 -3 c-33 -2 -62 -1 -65
2 -2 3 -10 29 -17 58 l-11 53 -81 3 -80 3 -12 -61 -12 -60 -65 0 c-58 0 -65 2
-60 18 3 9 21 78 41 152 71 272 106 405 110 418 3 8 28 12 79 12 74 0 76 -1
83 -27z"/>
<path d="M4083 7615 c-152 -33 -308 -155 -377 -296 -70 -142 -67 -80 -63
-1467 2 -1121 4 -1252 19 -1293 72 -202 221 -345 413 -394 90 -23 2541 -23
2630 0 93 24 181 72 250 136 74 70 118 134 154 227 l26 67 3 1262 c3 1394 6
1326 -60 1462 -66 136 -224 259 -380 296 -90 21 -2518 21 -2615 0z m1711 -536
c25 -12 291 -294 313 -333 9 -16 12 -219 12 -856 0 -636 -3 -840 -12 -857 -27
-48 -292 -326 -323 -339 -48 -20 -720 -20 -767 0 -36 15 -314 298 -328 334 -5
13 -9 87 -9 165 0 123 3 146 20 174 27 45 64 66 116 66 89 0 134 -62 134 -186
0 -48 5 -88 14 -105 8 -15 49 -61 91 -102 l75 -75 243 -6 c133 -3 255 -2 272
3 32 9 158 127 181 170 11 21 14 75 14 243 0 246 -5 267 -69 303 -38 21 -49
22 -397 22 -263 1 -365 4 -381 13 -28 16 -284 282 -301 313 -10 19 -12 102
-10 367 l3 343 29 35 c15 19 54 61 85 94 31 33 83 90 116 125 100 109 57 100
482 100 255 0 380 -4 397 -11z"/>
<path d="M5135 6798 c-30 -16 -94 -78 -126 -122 l-29 -39 0 -244 c0 -166 4
-251 12 -266 22 -43 110 -136 143 -151 28 -13 79 -16 315 -16 313 0 334 4 371
64 18 29 19 51 17 317 l-3 285 -68 76 c-37 42 -83 83 -101 92 -28 13 -74 16
-273 16 -154 -1 -245 -5 -258 -12z"/>
<path d="M4034 3480 c-34 -13 -44 -63 -44 -212 0 -156 12 -203 54 -214 65 -16
93 20 102 132 4 45 3 121 -1 169 -6 73 -11 92 -31 111 -24 25 -45 29 -80 14z"/>
</g>
</svg>
