<?xml version="1.0" standalone="no"?>
<!DOCTYPE svg PUBLIC "-//W3C//DTD SVG 20010904//EN"
 "http://www.w3.org/TR/2001/REC-SVG-20010904/DTD/svg10.dtd">
<svg version="1.0" xmlns="http://www.w3.org/2000/svg"
 width="1080.000000pt" height="1080.000000pt" viewBox="0 0 1080.000000 1080.000000"
 preserveAspectRatio="xMidYMid meet">
<metadata>
Created by potrace 1.16, written by Peter Selinger 2001-2019
</metadata>
<g transform="translate(0.000000,1080.000000) scale(0.100000,-0.100000)"
fill="#000000" stroke="none">
<path d="M0 5400 l0 -5400 5400 0 5400 0 0 5400 0 5400 -5400 0 -5400 0 0
-5400z m6750 2377 c257 -70 451 -258 532 -517 l23 -75 0 -1290 c0 -1454 6
-1336 -80 -1511 -91 -185 -262 -324 -470 -380 -67 -18 -125 -19 -1370 -19
l-1300 0 -75 23 c-212 67 -377 207 -466 399 -72 154 -68 64 -72 1413 -2 796 1
1248 7 1312 31 287 224 534 486 623 128 44 128 44 1455 41 1171 -2 1270 -3
1330 -19z m-2563 -4192 c12 -8 30 -27 40 -41 56 -87 57 -381 1 -473 -27 -44
-87 -71 -160 -71 -100 0 -155 37 -184 124 -21 61 -24 286 -5 353 12 45 50 96
83 114 55 29 176 26 225 -6z m469 9 c45 -21 74 -71 81 -139 l6 -55 -62 0 -61
0 0 36 c0 45 -15 73 -46 84 -39 15 -71 -3 -83 -47 -14 -49 -14 -287 -1 -335
27 -95 120 -67 135 40 l7 52 59 0 c66 0 65 2 49 -80 -19 -101 -80 -150 -185
-150 -70 0 -115 19 -148 61 -37 50 -47 100 -47 245 0 187 28 260 110 293 40
16 148 13 186 -5z m522 -41 l-3 -48 -95 -2 c-52 -1 -101 -2 -108 -2 -10 -1
-12 -19 -10 -68 l3 -68 98 -3 97 -3 0 -44 0 -44 -97 -3 -98 -3 0 -80 0 -80
108 -3 107 -3 0 -44 0 -45 -170 0 -170 0 0 295 0 295 171 0 170 0 -3 -47z
m362 42 c0 -3 34 -132 75 -287 41 -156 75 -286 75 -290 0 -5 -27 -8 -59 -8
-65 0 -65 0 -76 74 l-7 46 -84 0 -83 0 -12 -60 -12 -60 -62 0 -62 0 12 48 c58
223 137 519 140 530 3 8 28 12 80 12 41 0 75 -2 75 -5z m435 -198 l70 -198 3
200 2 201 55 0 55 0 0 -295 0 -295 -69 0 -69 0 -25 73 c-90 260 -110 313 -118
322 -5 5 -9 -70 -9 -193 l0 -202 -50 0 -50 0 0 295 0 296 67 -3 68 -3 70 -198z
m425 -92 l0 -295 -60 0 -60 0 0 295 0 295 60 0 60 0 0 -295z m404 198 c52
-192 126 -478 126 -485 0 -5 -27 -8 -60 -8 l-59 0 -13 60 -12 60 -82 0 -82 0
-6 -30 c-3 -16 -9 -43 -12 -60 -5 -29 -7 -30 -65 -30 -38 0 -59 4 -59 12 0 11
108 426 136 526 l15 52 73 0 74 0 26 -97z"/>
<path d="M4070 7614 c-152 -40 -301 -160 -367 -295 -66 -133 -63 -68 -63
-1430 0 -1199 1 -1238 20 -1313 28 -109 63 -169 151 -258 82 -84 175 -138 273
-158 35 -7 458 -10 1336 -8 l1285 3 60 24 c135 54 246 151 308 269 71 135 67
52 67 1438 0 1376 2 1314 -62 1438 -49 92 -165 205 -258 249 -41 19 -99 40
-128 46 -37 8 -434 11 -1310 10 -1065 0 -1265 -3 -1312 -15z m1726 -541 c39
-23 302 -305 314 -339 6 -15 10 -343 10 -847 0 -694 -2 -826 -14 -849 -23 -44
-286 -325 -315 -337 -17 -7 -158 -12 -391 -13 -320 -2 -369 0 -395 14 -37 20
-295 291 -312 327 -18 39 -17 282 1 326 38 90 177 101 231 18 13 -19 20 -56
25 -129 l6 -101 68 -76 c38 -42 83 -83 100 -91 25 -11 88 -17 265 -21 276 -7
275 -7 384 110 l67 74 0 233 c0 257 -2 267 -66 309 -27 18 -53 19 -382 19
-276 0 -360 3 -385 14 -38 16 -287 267 -310 313 -15 28 -17 75 -17 358 0 224
4 333 11 348 10 19 83 101 239 271 84 91 56 86 470 86 330 0 368 -2 396 -17z"/>
<path d="M5073 6748 c-100 -96 -103 -103 -103 -361 0 -249 1 -252 80 -340 81
-90 67 -87 402 -87 416 0 393 -21 392 365 0 143 -3 273 -8 289 -8 33 -126 160
-168 182 -21 11 -82 14 -278 14 l-252 0 -65 -62z"/>
<path d="M4042 3523 c-42 -8 -54 -59 -54 -224 1 -88 6 -156 13 -171 25 -55 93
-61 126 -11 36 54 28 361 -10 391 -17 14 -48 20 -75 15z"/>
<path d="M5456 3473 c-9 -28 -46 -213 -46 -229 0 -10 15 -14 55 -14 30 0 55 2
55 5 0 11 -52 250 -55 253 -2 2 -6 -5 -9 -15z"/>
<path d="M6700 3488 c0 -3 -11 -56 -25 -118 -14 -62 -25 -119 -25 -127 0 -9
16 -13 55 -13 30 0 55 4 55 9 0 16 -51 245 -56 250 -2 2 -4 2 -4 -1z"/>
</g>
</svg>
